<?xml version="1.0" encoding="UTF-8" standalone="no"?>
<!-- Created with Inkscape (http://www.inkscape.org/) -->

<svg
   width="72.356628mm"
   height="72.356628mm"
   viewBox="0 0 72.356629 72.356628"
   version="1.1"
   id="svg1"
   xml:space="preserve"
   inkscape:version="1.4.2 (1:1.4.2+202505120738+ebf0e940d0)"
   sodipodi:docname="contactus_icon.svg"
   inkscape:export-filename="members_icon.png"
   inkscape:export-xdpi="96"
   inkscape:export-ydpi="96"
   xmlns:inkscape="http://www.inkscape.org/namespaces/inkscape"
   xmlns:sodipodi="http://sodipodi.sourceforge.net/DTD/sodipodi-0.dtd"
   xmlns="http://www.w3.org/2000/svg"
   xmlns:svg="http://www.w3.org/2000/svg"><sodipodi:namedview
     id="namedview1"
     pagecolor="#ffffff"
     bordercolor="#000000"
     borderopacity="0.25"
     inkscape:showpageshadow="2"
     inkscape:pageopacity="0.0"
     inkscape:pagecheckerboard="0"
     inkscape:deskcolor="#d1d1d1"
     inkscape:document-units="mm"
     inkscape:zoom="1.4841611"
     inkscape:cx="60.977208"
     inkscape:cy="118.9224"
     inkscape:window-width="1858"
     inkscape:window-height="1016"
     inkscape:window-x="0"
     inkscape:window-y="0"
     inkscape:window-maximized="1"
     inkscape:current-layer="layer1"
     showguides="false" /><defs
     id="defs1" /><g
     inkscape:label="Layer 1"
     inkscape:groupmode="layer"
     id="layer1"><rect
       style="fill:#ffffff;fill-rule:evenodd;stroke-width:5.29167;stroke-miterlimit:2.4"
       id="rect1"
       width="72.356628"
       height="72.356628"
       x="0"
       y="0" /><rect
       style="fill:#b5d19d;fill-opacity:1;fill-rule:evenodd;stroke:none;stroke-width:1.2;stroke-miterlimit:2.4"
       id="rect2"
       width="10.494233"
       height="10.494233"
       x="0"
       y="-16.544962" /><rect
       style="fill:#4a4a4a;fill-opacity:1;fill-rule:evenodd;stroke:none;stroke-width:1.2;stroke-miterlimit:2.4"
       id="rect2-9"
       width="10.494233"
       height="10.494233"
       x="10.494232"
       y="-16.544962" /><rect
       style="fill:#c52529;fill-opacity:1;fill-rule:evenodd;stroke:none;stroke-width:1.2;stroke-miterlimit:2.4"
       id="rect2-0"
       width="10.494233"
       height="10.494233"
       x="20.988464"
       y="-16.544962" /><g
       id="g1"><path
         style="fill:#4a4a4a;stroke-width:0.740096;fill-opacity:1"
         d="M 14.978902,43.458182 C 14.016768,42.959589 12.817483,41.342481 12.099568,39.5757 11.595974,38.336364 11.186352,36.400579 11.071133,34.715548 l -0.08041,-1.175897 0.862255,-1.436339 c 2.502972,-4.169436 6.269947,-8.335688 10.871838,-12.024186 2.688287,-2.15471 3.798631,-2.880218 6.460555,-4.221368 5.875968,-2.96047 11.378025,-4.69662 16.260207,-5.130831 l 1.693754,-0.150639 1.029932,0.555369 c 3.26787,1.762132 5.501294,4.182688 6.185601,6.703872 0.147775,0.544455 0.140145,0.696357 -0.0615,1.224385 -0.445175,1.165667 -2.201756,2.661577 -4.392194,3.740412 -2.118836,1.043566 -5.16578,2.177941 -5.861137,2.182097 -0.621702,0.0037 -1.944046,-0.643698 -2.547683,-1.247335 -0.657923,-0.657924 -1.341268,-2.169321 -1.536994,-3.399449 -0.119562,-0.751466 -0.220038,-1.024364 -0.415683,-1.129073 -0.467732,-0.250323 -2.53647,-0.275167 -3.526704,-0.04236 -3.227305,0.758768 -9.082284,4.329433 -11.842338,7.222064 -1.10309,1.156076 -1.926269,2.608835 -2.03752,3.595839 -0.0638,0.565841 -0.05336,0.58444 0.5909,1.05739 1.638231,1.202571 2.774922,2.887954 2.874294,4.261739 0.09072,1.25421 -0.253578,1.829499 -2.244836,3.75087 -2.714234,2.618973 -4.744153,3.997412 -6.494158,4.409924 -1.057954,0.249381 -1.393056,0.248695 -1.880404,-0.0038 z"
         id="path1"
         sodipodi:nodetypes="csscsssscsscscssscsccssscc" /><path
         style="fill:#c52529;fill-opacity:1;stroke-width:0.740096"
         d="m 49.068586,54.427605 c -5.3783,-1.591429 -6.76939,-2.010833 -6.8,-2.050132 -0.0124,-0.01591 -0.0522,-0.415682 -0.0883,-0.888367 l -0.0658,-0.859428 0.7995,0.225107 c 0.7308,0.205769 3.33679,0.97273 8.70151,2.560916 1.11347,0.329631 2.09473,0.626151 2.18058,0.658929 0.0983,0.03753 0.25355,-0.27083 0.41943,-0.833251 0.14483,-0.491068 0.56417,-1.921415 0.93188,-3.178556 0.36771,-1.257141 0.77638,-2.63836 0.90817,-3.069377 0.13178,-0.431018 0.426,-1.430199 0.6538,-2.2204 0.22781,-0.790201 0.52168,-1.789382 0.65306,-2.220401 0.13137,-0.431018 0.42525,-1.430198 0.65306,-2.2204 0.22781,-0.790201 0.52168,-1.789381 0.65306,-2.220399 0.68403,-2.244194 1.06856,-3.611271 1.02656,-3.64965 -0.0643,-0.0588 -1.10879,-0.369235 -13.89182,-4.129044 -3.44815,-1.014187 -6.73957,-1.983127 -7.31427,-2.153201 -3.121379,-0.923734 -4.902345,-1.405154 -4.965312,-1.342192 -0.03893,0.03894 -0.209299,0.563797 -0.378582,1.166339 -0.169274,0.602544 -0.672169,2.329816 -1.117537,3.838382 -1.601434,5.42437 -1.961024,6.649553 -2.549215,8.685683 -0.259397,0.897956 -0.502073,1.735504 -0.539278,1.861218 -0.03723,0.125714 -0.137155,0.229965 -0.222103,0.231671 -0.08496,0.0017 -0.504057,0.146809 -0.931329,0.322453 -0.427272,0.175644 -0.794448,0.301767 -0.815941,0.280273 -0.02146,-0.02149 0.045,-0.298843 0.147753,-0.61633 0.102762,-0.317487 1.226035,-4.133155 2.496173,-8.479262 1.27013,-4.346107 2.391775,-8.06265 2.492531,-8.258985 0.226588,-0.441496 0.805365,-0.753229 1.3985,-0.753229 0.246955,0 0.95496,0.147699 1.57334,0.32822 1.053401,0.307515 1.7427,0.509886 4.42275,1.298485 1.6653,0.490006 3.18582,0.93717 4.47395,1.315723 0.64653,0.19 1.64571,0.483877 2.2204,0.653058 1.14501,0.337077 2.643,0.777713 4.40766,1.296514 1.45438,0.427581 3.06832,0.902271 4.4408,1.306118 2.19862,0.646937 3.45586,1.015996 4.45613,1.308077 1.8289,0.534043 2.19494,1.248054 1.60908,3.138666 -0.17809,0.574692 -0.51115,1.691423 -0.74015,2.481623 -0.22898,0.790202 -0.52382,1.789383 -0.65519,2.220401 -0.13138,0.431019 -0.42526,1.4302 -0.65307,2.220401 -0.2278,0.790201 -0.52168,1.789381 -0.65306,2.2204 -0.13137,0.43102 -0.42525,1.430199 -0.65306,2.220401 -0.2278,0.7902 -0.52167,1.789381 -0.65306,2.220398 -0.13137,0.431016 -0.42523,1.430198 -0.65302,2.220406 -0.96865,3.360271 -1.12205,3.688022 -1.91797,4.097946 -0.15691,0.08082 -0.4214,0.1403 -0.58775,0.132197 -0.16636,-0.0081 -2.3596,-0.623435 -4.87388,-1.367401 z m 3.36271,-1.7852 c -0.0718,-0.0898 -0.7931,-1.456324 -1.60295,-3.036724 -0.80984,-1.580401 -1.7575,-3.425356 -2.1059,-4.099897 -0.34839,-0.674541 -0.63345,-1.38543 -0.63345,-1.579751 0,-0.681025 0.89982,-1.057031 1.33311,-0.557064 0.42578,0.491309 4.41381,8.39882 4.41381,8.751757 0,0.550935 -1.06507,0.946508 -1.40462,0.521679 z m -9.6522,-10.31833 c -0.35835,-0.520814 -2.34805,-3.38611 -4.42155,-6.367325 -2.073498,-2.981213 -3.909187,-5.62425 -4.079313,-5.873414 -0.4887,-0.715767 -0.17484,-1.440845 0.623693,-1.440845 0.38972,0 0.499492,0.108268 1.324262,1.306118 1.821228,2.645069 7.205768,10.391361 7.505128,10.797015 l 0.30506,0.41338 3.10386,-1.439351 c 1.70712,-0.791642 3.92671,-1.8206 4.93242,-2.286572 1.00571,-0.465972 2.49207,-1.16455 3.30302,-1.552395 1.92785,-0.92202 2.02444,-0.943027 2.43733,-0.530135 0.36576,0.365765 0.42059,0.700293 0.16984,1.036198 -0.0898,0.120286 -1.16245,0.681604 -2.38367,1.247373 -1.22122,0.56577 -2.6906,1.250816 -3.26529,1.522325 -0.57469,0.27151 -1.83836,0.86112 -2.80816,1.310245 -0.96979,0.449126 -2.72307,1.263831 -3.89616,1.810455 -1.1731,0.546626 -2.14776,0.993863 -2.16592,0.993863 -0.0181,0 -0.3262,-0.42612 -0.68455,-0.946935 z m -8.045157,0.18295 c -0.484896,-0.114556 -0.881631,-0.242042 -0.881631,-0.283304 0,-0.174428 3.846788,-2.218005 4.175128,-2.218005 0.68369,0 1.05977,0.8973 0.55955,1.335045 -0.46771,0.409304 -2.385111,1.407217 -2.673008,1.391175 -0.164123,-0.0091 -0.695143,-0.110355 -1.180039,-0.224911 z"
         id="path1-2"
         sodipodi:nodetypes="csccsssssssssccsscccscsscsscssssssssscsssscssscccssssscsscscscssssssssssssssscs" /><path
         style="fill:#b5d19d;fill-opacity:1;stroke-width:0.740096"
         d="m 28.395984,61.626195 c -2.15075,-0.48568 -4.30224,-2.11554 -5.1153,-3.87511 -0.50916,-1.10188 -0.7916,-2.56348 -0.7916,-4.09644 0,-1.82324 0.27945,-3.0307 1.0693,-4.620296 1.1118,-2.237538 2.82775,-3.714182 5.26538,-4.531068 0.85106,-0.285207 1.35985,-0.361703 2.74284,-0.412383 2.10209,-0.07703 3.21251,0.131889 4.76733,0.89695 2.4454,1.203279 3.83746,3.444855 4.00335,6.446397 0.20139,3.64404 -1.50212,6.19985 -4.13396,6.2023 -0.91688,7.4e-4 -1.52574,-0.25589 -2.02859,-0.85541 l -0.26533,-0.31634 -0.49253,0.40599 c -1.49188,1.22974 -3.91987,1.19121 -5.41184,-0.0859 -0.29523,-0.2527 -0.70199,-0.79591 -0.90392,-1.20711 -0.3381,-0.68853 -0.36715,-0.86698 -0.36715,-2.25626 0,-1.4626 0.0138,-1.53579 0.45268,-2.4007 0.53408,-1.052516 1.32742,-1.792094 2.43663,-2.271513 1.26655,-0.547419 3.8379,-0.543407 5.71307,0.009 l 0.50444,0.148581 -0.0882,1.966762 c -0.15485,3.45281 -0.13751,4.19789 0.10638,4.57011 0.23511,0.35883 0.69023,0.43911 1.1362,0.20044 0.6779,-0.3628 1.10935,-2.10996 1.00202,-4.05771 -0.0628,-1.13903 -0.13014,-1.42616 -0.53436,-2.277353 -1.01595,-2.139284 -2.83736,-3.198806 -5.48955,-3.193296 -1.94792,0.0041 -3.81283,0.724528 -5.02349,1.940744 -0.88931,0.893384 -1.34417,1.703278 -1.73535,3.089805 -0.34872,1.23609 -0.40857,3.37253 -0.12612,4.50218 0.70003,2.79968 2.8224,4.31019 6.05613,4.31019 1.26414,0 3.43043,-0.39356 4.36034,-0.79217 l 0.57842,-0.24794 -0.0379,1.07516 -0.0379,1.07515 -1.1102,0.38197 c -1.03544,0.35625 -1.26412,0.38461 -3.3959,0.42118 -1.62605,0.0279 -2.52225,-0.0142 -3.10532,-0.14586 z m 3.8199,-6.25911 c 0.19075,-0.12498 0.46054,-0.49256 0.59955,-0.81685 0.26517,-0.61863 0.51154,-2.34196 0.51336,-3.59095 l 7.4e-4,-0.73619 -0.58775,-0.0881 c -1.34733,-0.202034 -2.49747,0.26741 -3.1193,1.27321 -0.31741,0.51339 -0.39613,0.80418 -0.44466,1.64241 -0.0746,1.28899 0.24264,2.13599 0.91347,2.43872 0.54543,0.24615 1.65995,0.18203 2.12426,-0.1222 z"
         id="path1-0"
         sodipodi:nodetypes="cssssssscscsscsssccssscccsccsscccsscccscccscscc" /></g></g></svg>
