<?xml version="1.0" encoding="UTF-8" standalone="no"?>
<!-- Created with Inkscape (http://www.inkscape.org/) -->

<svg
   width="72.356628mm"
   height="72.356628mm"
   viewBox="0 0 72.356629 72.356628"
   version="1.1"
   id="svg1"
   xml:space="preserve"
   inkscape:version="1.4.2 (1:1.4.2+202505120738+ebf0e940d0)"
   sodipodi:docname="members_icon.svg"
   inkscape:export-filename="members_icon.png"
   inkscape:export-xdpi="96"
   inkscape:export-ydpi="96"
   xmlns:inkscape="http://www.inkscape.org/namespaces/inkscape"
   xmlns:sodipodi="http://sodipodi.sourceforge.net/DTD/sodipodi-0.dtd"
   xmlns="http://www.w3.org/2000/svg"
   xmlns:svg="http://www.w3.org/2000/svg"><sodipodi:namedview
     id="namedview1"
     pagecolor="#ffffff"
     bordercolor="#000000"
     borderopacity="0.25"
     inkscape:showpageshadow="2"
     inkscape:pageopacity="0.0"
     inkscape:pagecheckerboard="0"
     inkscape:deskcolor="#d1d1d1"
     inkscape:document-units="mm"
     inkscape:zoom="1.4841611"
     inkscape:cx="263.78539"
     inkscape:cy="74.789727"
     inkscape:window-width="1858"
     inkscape:window-height="1043"
     inkscape:window-x="0"
     inkscape:window-y="0"
     inkscape:window-maximized="1"
     inkscape:current-layer="layer1" /><defs
     id="defs1" /><g
     inkscape:label="Layer 1"
     inkscape:groupmode="layer"
     id="layer1"><rect
       style="fill:#ffffff;fill-rule:evenodd;stroke-width:5.29167;stroke-miterlimit:2.4"
       id="rect1"
       width="72.356628"
       height="72.356628"
       x="0"
       y="0" /><g
       id="g2"
       transform="matrix(0.7993812,0,0,0.7993812,7.2580225,7.25805)"
       style="stroke:#000000;stroke-width:0.12509676;stroke-dasharray:none"><path
         style="fill:#b5d19d;fill-opacity:1;stroke-width:0.12509676;stroke:#000000;stroke-dasharray:none"
         d="M 14.918049,54.107038 C 11.570159,53.757972 6.5322792,52.710942 3.1945692,51.670534 l -0.78967,-0.246148 0.003,-6.23773 c 0.003,-6.769827 0.13008,-7.709605 1.37983,-10.214863 0.92046,-1.845193 3.46529,-4.361939 5.37607,-5.316769 2.5748298,-1.286657 4.3465098,-1.543449 10.1117898,-1.465611 l 5.08634,0.06869 0.29946,1.77822 c 0.34254,2.033973 1.18488,3.905659 2.51505,5.588455 l 0.92223,1.166706 -1.13479,0.403035 c -2.99882,1.065084 -6.19777,3.933246 -7.76611,6.963033 -1.33345,2.576052 -1.52573,3.359724 -1.698,6.920644 -0.0859,1.776668 -0.25732,3.159253 -0.39484,3.18538 -0.13364,0.02534 -1.11768,-0.04509 -2.18677,-0.15651 z m 2.86545,-26.717745 c -1.8121,-0.242006 -4.13794,-1.413965 -5.49061,-2.766623 -4.8743098,-4.874309 -3.4952898,-12.929013 2.73896,-15.9981319 1.48424,-0.7306849 1.734,-0.7762521 4.25462,-0.7762521 2.43994,0 2.80068,0.060332 4.06088,0.6791761 3.14162,1.5427599 5.42659,4.7108759 5.71835,7.9285249 l 0.13682,1.50892 -1.10583,1.137522 c -1.51518,1.558592 -2.53545,3.258514 -3.13274,5.219692 -0.55373,1.818111 -0.85433,2.110883 -2.75669,2.684909 -1.58829,0.479267 -2.86892,0.589925 -4.42376,0.382263 z"
         id="path1-5"
         sodipodi:nodetypes="cscccscccscsccccccccscscsccc" /><path
         style="fill:#4a4a4a;fill-opacity:1;stroke-width:0.12509676;stroke:#000000;stroke-dasharray:none"
         d="M 30.832912,64.20238 C 27.955291,63.795203 24.00389,62.941216 21.375218,62.15837 l -1.765914,-0.525916 0.10377,-6.360805 c 0.09312,-5.708287 -0.504272,-5.563998 0.633094,-7.976553 1.71372,-3.635106 4.587866,-7.141968 8.664444,-8.38361 1.247701,-0.380031 2.350915,-0.444361 7.653679,-0.44627 5.72344,-0.0019 6.326275,0.03884 7.906733,0.536063 3.963799,1.247124 6.897657,4.115828 8.415054,8.228175 0.483655,1.310763 0.539498,2.003089 0.629255,7.800988 l 0.09851,6.362568 -0.931844,0.467969 c -1.41145,0.708811 -3.850532,1.460295 -6.534992,2.01343 -3.273374,0.674474 -11.698355,0.853742 -15.414095,0.327971 z m 3.930417,-26.606819 c -6.347856,-1.249208 -9.881676,-8.448583 -6.960571,-14.180664 3.304779,-6.48498 12.340961,-7.356664 16.721111,-1.613021 1.476714,1.936391 1.951002,3.405199 1.967064,6.091744 0.01257,2.10575 -0.0541,2.451562 -0.760071,3.941842 -1.449707,3.060248 -4.141982,5.179322 -7.33818,5.77583 -1.49316,0.278666 -2.147789,0.275828 -3.629353,-0.01571 z"
         id="path1"
         sodipodi:nodetypes="sscsasccsscssscssccscc" /><path
         style="fill:#c52529;fill-opacity:1;stroke-width:0.12509676;stroke:#000000;stroke-dasharray:none"
         d="m 55.946629,54.012126 c -0.0771,-0.2011 -0.0879,-0.77512 -0.0237,-1.27561 0.0641,-0.50049 0.0213,-1.87539 -0.0951,-3.05535 -0.500651,-5.07505 -3.567031,-9.58431 -8.039901,-11.82305 -1.07081,-0.53596 -2.09389,-0.97447 -2.2735,-0.97447 -0.1848,0 0.18578,-0.67694 0.853541,-1.55916 1.32527,-1.75094 2.15015,-3.71626 2.39992,-5.71805 l 0.168239,-1.34835 4.544931,-0.066 c 5.21408,-0.0758 7.160599,0.21432 9.65311,1.43873 1.95302,0.95941 4.49542,3.45795 5.43481,5.34104 1.24629,2.49834 1.37669,3.45355 1.379819,10.10729 l 0.003,6.13015 -0.911151,0.46468 c -0.84487,0.43088 -4.08999,1.4717 -5.7636,1.84859 -0.839169,0.18898 -6.09611,0.85527 -6.74794,0.85527 -0.24313,0 -0.5052,-0.16454 -0.58237,-0.36563 z m -4.11214,-26.61783 c -1.93019,-0.25845 -3.02108,-0.7311 -3.02414,-1.31029 -0.002,-0.27382 -0.15527,-1.00077 -0.34183,-1.61542 -0.65599,-2.16121 -1.64252,-3.72431 -3.48316,-5.51884 l -1.82262,-1.77695 0.15132,-1.13873 c 0.39067,-2.94029 2.76187,-6.06533 5.69519,-7.5058 1.2597,-0.61861 1.62142,-0.67918 4.05577,-0.67918 2.39505,0 2.81792,0.068 4.07045,0.65503 1.82672,0.85606 3.94732,2.8839 4.81674,4.606 3.564089,7.05962 -2.29503,15.33151 -10.11772,14.28417 z"
         id="path1-1"
         sodipodi:nodetypes="ccssscsccccccssscccccsccssccsc" /></g><rect
       style="fill:#b5d19d;fill-opacity:1;fill-rule:evenodd;stroke:none;stroke-width:1.2;stroke-miterlimit:2.4"
       id="rect2"
       width="10.494233"
       height="10.494233"
       x="0"
       y="-16.544962" /><rect
       style="fill:#4a4a4a;fill-opacity:1;fill-rule:evenodd;stroke:none;stroke-width:1.2;stroke-miterlimit:2.4"
       id="rect2-9"
       width="10.494233"
       height="10.494233"
       x="10.494232"
       y="-16.544962" /><rect
       style="fill:#c52529;fill-opacity:1;fill-rule:evenodd;stroke:none;stroke-width:1.2;stroke-miterlimit:2.4"
       id="rect2-0"
       width="10.494233"
       height="10.494233"
       x="20.988464"
       y="-16.544962" /></g></svg>
