<?xml version="1.0" encoding="UTF-8" standalone="no"?>
<!-- Created with Inkscape (http://www.inkscape.org/) -->

<svg
   width="72.356628mm"
   height="72.356628mm"
   viewBox="0 0 72.356629 72.356628"
   version="1.1"
   id="svg1"
   xml:space="preserve"
   inkscape:version="1.3.2 (091e20e, 2023-11-25, custom)"
   sodipodi:docname="opportunities_icon.svg"
   inkscape:export-filename="members_icon.png"
   inkscape:export-xdpi="96"
   inkscape:export-ydpi="96"
   xmlns:inkscape="http://www.inkscape.org/namespaces/inkscape"
   xmlns:sodipodi="http://sodipodi.sourceforge.net/DTD/sodipodi-0.dtd"
   xmlns="http://www.w3.org/2000/svg"
   xmlns:svg="http://www.w3.org/2000/svg"><sodipodi:namedview
     id="namedview1"
     pagecolor="#ffffff"
     bordercolor="#000000"
     borderopacity="0.25"
     inkscape:showpageshadow="2"
     inkscape:pageopacity="0.0"
     inkscape:pagecheckerboard="0"
     inkscape:deskcolor="#d1d1d1"
     inkscape:document-units="mm"
     inkscape:zoom="1.0494604"
     inkscape:cx="104.81577"
     inkscape:cy="144.3599"
     inkscape:window-width="1920"
     inkscape:window-height="974"
     inkscape:window-x="-11"
     inkscape:window-y="-11"
     inkscape:window-maximized="1"
     inkscape:current-layer="layer1" /><defs
     id="defs1" /><g
     inkscape:label="Layer 1"
     inkscape:groupmode="layer"
     id="layer1"><rect
       style="fill:#ffffff;fill-rule:evenodd;stroke-width:5.29167;stroke-miterlimit:2.4"
       id="rect1"
       width="72.356628"
       height="72.356628"
       x="0"
       y="0" /><g
       id="g2"
       transform="matrix(0.7993812,0,0,0.7993812,-69.27778,-42.842492)"
       style="stroke:#000000;stroke-width:0.125097;stroke-dasharray:none"><path
         style="fill:#b5d19d;fill-opacity:1;stroke:#000000;stroke-width:0.125097;stroke-dasharray:none"
         d="M 14.918049,54.107038 C 11.570159,53.757972 6.5322792,52.710942 3.1945692,51.670534 l -0.78967,-0.246148 0.003,-6.23773 c 0.003,-6.769827 0.13008,-7.709605 1.37983,-10.214863 0.92046,-1.845193 3.46529,-4.361939 5.37607,-5.316769 2.5748298,-1.286657 4.3465098,-1.543449 10.1117898,-1.465611 l 5.08634,0.06869 0.29946,1.77822 c 0.34254,2.033973 1.18488,3.905659 2.51505,5.588455 l 0.92223,1.166706 -1.13479,0.403035 c -2.99882,1.065084 -6.19777,3.933246 -7.76611,6.963033 -1.33345,2.576052 -1.52573,3.359724 -1.698,6.920644 -0.0859,1.776668 -0.25732,3.159253 -0.39484,3.18538 -0.13364,0.02534 -1.11768,-0.04509 -2.18677,-0.15651 z m 2.86545,-26.717745 c -1.8121,-0.242006 -4.13794,-1.413965 -5.49061,-2.766623 -4.8743098,-4.874309 -3.4952898,-12.929013 2.73896,-15.9981319 1.48424,-0.7306849 1.734,-0.7762521 4.25462,-0.7762521 2.43994,0 2.80068,0.060332 4.06088,0.6791761 3.14162,1.5427599 5.42659,4.7108759 5.71835,7.9285249 l 0.13682,1.50892 -1.10583,1.137522 c -1.51518,1.558592 -2.53545,3.258514 -3.13274,5.219692 -0.55373,1.818111 -0.85433,2.110883 -2.75669,2.684909 -1.58829,0.479267 -2.86892,0.589925 -4.42376,0.382263 z"
         id="path1-5"
         sodipodi:nodetypes="cscccscccscsccccccccscscsccc" /><path
         style="fill:#4a4a4a;fill-opacity:1;stroke:#000000;stroke-width:0.125097;stroke-dasharray:none"
         d="M 30.832912,64.20238 C 27.955291,63.795203 24.00389,62.941216 21.375218,62.15837 l -1.765914,-0.525916 0.10377,-6.360805 c 0.09312,-5.708287 -0.504272,-5.563998 0.633094,-7.976553 1.71372,-3.635106 4.587866,-7.141968 8.664444,-8.38361 1.247701,-0.380031 2.350915,-0.444361 7.653679,-0.44627 5.72344,-0.0019 6.326275,0.03884 7.906733,0.536063 3.963799,1.247124 6.897657,4.115828 8.415054,8.228175 0.483655,1.310763 0.539498,2.003089 0.629255,7.800988 l 0.09851,6.362568 -0.931844,0.467969 c -1.41145,0.708811 -3.850532,1.460295 -6.534992,2.01343 -3.273374,0.674474 -11.698355,0.853742 -15.414095,0.327971 z m 3.930417,-26.606819 c -6.347856,-1.249208 -9.881676,-8.448583 -6.960571,-14.180664 3.304779,-6.48498 12.340961,-7.356664 16.721111,-1.613021 1.476714,1.936391 1.951002,3.405199 1.967064,6.091744 0.01257,2.10575 -0.0541,2.451562 -0.760071,3.941842 -1.449707,3.060248 -4.141982,5.179322 -7.33818,5.77583 -1.49316,0.278666 -2.147789,0.275828 -3.629353,-0.01571 z"
         id="path1"
         sodipodi:nodetypes="sscsasccsscssscssccscc" /><path
         style="fill:#c52529;fill-opacity:1;stroke:#000000;stroke-width:0.125097;stroke-dasharray:none"
         d="m 55.946629,54.012126 c -0.0771,-0.2011 -0.0879,-0.77512 -0.0237,-1.27561 0.0641,-0.50049 0.0213,-1.87539 -0.0951,-3.05535 -0.500651,-5.07505 -3.567031,-9.58431 -8.039901,-11.82305 -1.07081,-0.53596 -2.09389,-0.97447 -2.2735,-0.97447 -0.1848,0 0.18578,-0.67694 0.853541,-1.55916 1.32527,-1.75094 2.15015,-3.71626 2.39992,-5.71805 l 0.168239,-1.34835 4.544931,-0.066 c 5.21408,-0.0758 7.160599,0.21432 9.65311,1.43873 1.95302,0.95941 4.49542,3.45795 5.43481,5.34104 1.24629,2.49834 1.37669,3.45355 1.379819,10.10729 l 0.003,6.13015 -0.911151,0.46468 c -0.84487,0.43088 -4.08999,1.4717 -5.7636,1.84859 -0.839169,0.18898 -6.09611,0.85527 -6.74794,0.85527 -0.24313,0 -0.5052,-0.16454 -0.58237,-0.36563 z m -4.11214,-26.61783 c -1.93019,-0.25845 -3.02108,-0.7311 -3.02414,-1.31029 -0.002,-0.27382 -0.15527,-1.00077 -0.34183,-1.61542 -0.65599,-2.16121 -1.64252,-3.72431 -3.48316,-5.51884 l -1.82262,-1.77695 0.15132,-1.13873 c 0.39067,-2.94029 2.76187,-6.06533 5.69519,-7.5058 1.2597,-0.61861 1.62142,-0.67918 4.05577,-0.67918 2.39505,0 2.81792,0.068 4.07045,0.65503 1.82672,0.85606 3.94732,2.8839 4.81674,4.606 3.564089,7.05962 -2.29503,15.33151 -10.11772,14.28417 z"
         id="path1-1"
         sodipodi:nodetypes="ccssscsccccccssscccccsccssccsc" /></g><rect
       style="fill:#b5d19d;fill-opacity:1;fill-rule:evenodd;stroke:none;stroke-width:1.2;stroke-miterlimit:2.4"
       id="rect2"
       width="10.494233"
       height="10.494233"
       x="0"
       y="-16.544962" /><rect
       style="fill:#4a4a4a;fill-opacity:1;fill-rule:evenodd;stroke:none;stroke-width:1.2;stroke-miterlimit:2.4"
       id="rect2-9"
       width="10.494233"
       height="10.494233"
       x="10.494232"
       y="-16.544962" /><rect
       style="fill:#c52529;fill-opacity:1;fill-rule:evenodd;stroke:none;stroke-width:1.2;stroke-miterlimit:2.4"
       id="rect2-0"
       width="10.494233"
       height="10.494233"
       x="20.988464"
       y="-16.544962" /><g
       id="g3"
       style="stroke:#000000;stroke-width:0.1;stroke-dasharray:none"
       transform="matrix(0.93874432,0,0,0.93874432,2.2159981,3.7478557)"><path
         style="fill:#4a4a4a;fill-opacity:1;stroke:#000000;stroke-width:0.1;stroke-dasharray:none"
         d="m 31.737198,58.731852 c -0.899022,-0.544252 -1.30382,-1.269502 -1.30382,-2.335957 0,-0.49656 -0.04246,-0.902837 -0.09437,-0.902837 -0.0519,0 -0.202924,0.120639 -0.335599,0.268095 -0.748581,0.831965 -1.762194,1.182037 -2.919845,1.008441 -0.490835,-0.07361 -0.849277,-0.266877 -1.380111,-0.74414 -0.910183,-0.818333 -1.157416,-1.584149 -0.870085,-2.69514 0.204227,-0.789662 0.09355,-0.999776 -0.337518,-0.640768 -1.331464,1.108882 -3.764919,0.510287 -4.581725,-1.127045 -0.256263,-0.513686 -0.292649,-2.068431 -0.05865,-2.505675 0.08869,-0.165703 0.132848,-0.329671 0.09815,-0.364369 -0.0347,-0.03472 -0.459635,0.137996 -0.944301,0.383773 -1.354503,0.686865 -2.50117,0.566141 -3.627922,-0.381958 -0.718829,-0.604853 -0.907577,-1.09976 -0.907577,-2.379725 0,-1.173294 0.08149,-1.368357 1.147636,-2.747217 0.761941,-0.985424 1.537147,-2.079931 1.537147,-2.170286 0,-0.06002 -0.300618,-0.487084 -0.66804,-0.949036 -2.23349,-2.808151 -2.762517,-3.501341 -2.762517,-3.619758 0,-0.265774 1.077347,-2.36305 1.180972,-2.299005 0.05874,0.0363 1.008432,1.209808 2.110415,2.607773 l 2.003603,2.541764 1.163356,0.0017 c 1.300699,0.0022 1.797414,0.188497 2.394666,0.898295 0.45796,0.544251 0.717417,1.411386 0.752271,2.51418 0.02031,0.642618 0.09453,0.856396 0.37663,1.084827 0.210735,0.170643 0.465,0.248416 0.635363,0.194348 0.457572,-0.14523 1.719802,0.253173 2.289256,0.722566 0.62981,0.519143 1.114006,1.411139 1.114006,2.052246 0,0.343884 0.134833,0.585506 0.514128,0.921305 0.449562,0.398014 0.632846,0.457831 1.459433,0.476293 0.727973,0.01624 1.057455,0.100971 1.433128,0.368474 0.606485,0.431855 1.139464,1.261541 1.273685,1.982738 0.08126,0.43664 0.261158,0.664636 0.880414,1.115821 0.428057,0.311875 1.046762,0.659124 1.374903,0.771662 0.688018,0.235957 1.068594,0.539409 1.343702,1.071404 0.28181,0.544963 1.743776,1.5014 2.437124,1.594399 0.977245,0.131074 1.820873,-0.565189 1.807861,-1.492075 -0.0028,-0.215673 -0.246475,-0.507636 -0.708484,-0.849671 -0.387127,-0.286602 -0.737431,-0.558317 -0.778448,-0.60381 -0.04104,-0.0455 -0.309496,-0.24633 -0.596623,-0.446308 -0.287122,-0.199974 -0.656277,-0.475758 -0.820346,-0.612847 -0.164075,-0.137097 -0.868827,-0.6811 -1.566127,-1.208902 -1.134624,-0.858832 -1.272625,-1.016119 -1.313615,-1.497193 -0.03986,-0.467826 0.01238,-0.56763 0.402768,-0.769509 0.246714,-0.127579 0.561749,-0.231965 0.700077,-0.231965 0.138329,0 1.131675,0.625238 2.207437,1.389418 1.075763,0.764182 2.49289,1.753461 3.149174,2.1984 0.656277,0.444945 1.226793,0.850032 1.26781,0.900199 0.04104,0.05018 0.639956,0.470397 1.330976,0.933842 1.35016,0.905521 1.895528,1.032948 2.681458,0.626529 0.586825,-0.303458 0.90967,-0.863606 0.90967,-1.578303 0,-0.994754 -0.258461,-1.332758 -1.850278,-2.419671 -0.484422,-0.330771 -0.987819,-0.691308 -1.118656,-0.80119 -0.130837,-0.109883 -0.919006,-0.687609 -1.751483,-1.283837 -5.285235,-3.785328 -5.123793,-3.650207 -5.123793,-4.288218 0,-0.632883 0.385437,-1.046737 0.97486,-1.046737 0.171527,0 1.280843,0.688506 2.465155,1.530014 2.656056,1.887247 2.538607,1.804564 3.940508,2.774204 0.635418,0.439498 1.265114,0.889594 1.399323,1.000228 0.134208,0.110627 0.982329,0.717363 1.884715,1.3483 1.351851,0.945195 1.765722,1.159792 2.350822,1.218939 0.661807,0.0669 0.744344,0.03551 1.213314,-0.461766 0.520258,-0.551636 0.68169,-1.139459 0.539849,-1.965774 -0.06349,-0.369884 -0.442926,-0.718992 -2.188512,-2.013585 -3.032083,-2.24872 -4.527941,-3.344128 -6.390112,-4.679433 -3.910773,-2.804308 -3.972406,-2.864796 -3.83587,-3.764662 0.04617,-0.304417 0.578138,-0.654343 0.994717,-0.654343 0.222472,0 2.415488,1.445504 4.854743,3.199946 0.861369,0.619539 2.03596,1.46156 2.610208,1.871158 0.574242,0.409592 1.490715,1.063811 2.036607,1.453808 4.017852,2.870466 3.539439,2.599953 4.486862,2.537029 1.323767,-0.08791 2.052922,-0.92343 2.052922,-2.352377 0,-1.123032 -0.165123,-1.352337 -2.237111,-3.106649 -0.451078,-0.381919 -1.122277,-0.97225 -1.491545,-1.311843 -0.369274,-0.339594 -0.906326,-0.80835 -1.193447,-1.04168 -0.287121,-0.233335 -0.5556,-0.459477 -0.596623,-0.502541 -0.04104,-0.04307 -0.61067,-0.547538 -1.265893,-1.121058 -0.655228,-0.573521 -1.264963,-1.10988 -1.354969,-1.191915 -0.09,-0.08204 -1.095302,-0.954588 -2.233988,-1.939008 -1.138692,-0.984427 -2.478987,-2.159017 -2.978444,-2.610207 -0.499457,-0.451197 -1.105895,-0.990307 -1.34764,-1.198026 -0.241747,-0.207719 -1.181091,-1.018532 -2.087437,-1.801818 -1.505908,-1.301437 -1.724383,-1.439033 -2.53563,-1.596907 -1.413096,-0.275007 -2.628885,0.14422 -3.666925,1.264427 -0.366326,0.395324 -0.467662,0.635909 -0.885294,2.101793 -0.620986,2.179661 -2.17095,3.707184 -4.73953,4.670926 -1.22092,0.458091 -3.211655,0.01325 -4.012926,-0.896737 -0.458483,-0.520682 -0.440292,-1.380432 0.05002,-2.364369 0.491727,-0.986765 0.807434,-2.49467 0.807434,-3.856528 0,-1.228382 0.472558,-2.816097 1.174028,-3.944524 0.242009,-0.389312 0.401268,-0.746588 0.353909,-0.793948 -0.04736,-0.04736 -1.417313,-0.08611 -3.044342,-0.08611 -1.627029,0 -2.958234,-0.04275 -2.958234,-0.09499 0,-0.288366 1.235217,-2.573984 1.431833,-2.649433 0.128296,-0.04923 2.278607,-0.08951 4.778467,-0.08951 4.93656,0 4.38043,0.07486 6.486586,-0.873218 0.949512,-0.427424 3.022497,-1.014676 4.00995,-1.135971 1.109756,-0.13632 4.240318,0.267713 5.817184,0.75077 2.583278,0.791359 5.573769,1.407574 6.830969,1.407574 h 0.773911 l 1.026555,2.125453 c 0.564607,1.169 1.461999,3.031566 1.994209,4.139044 0.53221,1.107473 1.538842,3.188185 2.236964,4.623793 0.41659,0.85667 0.947369,1.952693 1.423963,2.93972 0.322085,0.667037 0.619424,1.284295 0.840045,1.744257 l 0.994686,2.073769 -0.484529,1.133055 c -0.266495,0.62318 -0.538181,1.196819 -0.603754,1.274755 -0.161516,0.191963 -0.151143,0.883817 0.01589,1.058997 0.342295,0.359003 0.760675,1.321055 0.929068,2.136332 0.229671,1.111961 0.02914,2.135431 -0.632053,3.225778 -0.652804,1.076512 -1.427234,1.573697 -3.136898,2.013872 -0.688607,0.177295 -0.691579,0.180835 -0.792881,0.946476 -0.144452,1.091733 -0.534691,1.875121 -1.25918,2.527739 -0.823198,0.741541 -1.20917,0.891506 -2.55173,0.991445 l -1.118658,0.08328 -0.167874,0.679977 c -0.226796,0.918661 -0.531483,1.46745 -1.124503,2.025395 -0.850641,0.800328 -1.409341,1.003548 -2.734798,0.994759 -1.038568,-0.0069 -1.308709,-0.06838 -2.084053,-0.474343 -0.99992,-0.523558 -1.122775,-0.552409 -1.122775,-0.263698 0,0.366489 -1.173637,1.545065 -1.859764,1.867577 -0.956307,0.449523 -2.648321,0.442492 -3.504577,-0.01454 l -0.619589,-0.330718 -0.69961,0.771115 c -0.384787,0.424114 -0.93453,0.908283 -1.221653,1.075932 -0.72511,0.423386 -1.842122,0.408205 -2.574201,-0.03501 z"
         id="path2"
         sodipodi:nodetypes="cssssssssscssssscsssccssscssscsssssscsssssssssssssssssssssssscssscssscssssssssssssssssssssssssssssscssssscssssssssscssssssscsscc" /><path
         style="fill:#b5d19d;fill-opacity:1;stroke:#000000;stroke-width:0.1;stroke-dasharray:none"
         d="M 6.870697,36.01827 C 4.5388427,34.802126 4.3313116,34.615711 4.3313116,33.737256 c 0,-0.559795 0.3046539,-1.289283 1.8111409,-4.336773 0.9961283,-2.01508 2.1441351,-4.36854 2.5511261,-5.229907 0.406991,-0.861368 1.3781724,-2.874955 2.1581804,-4.474639 0.780008,-1.599684 1.7166,-3.579712 2.081315,-4.400062 0.744141,-1.673788 1.046503,-2.013588 1.791735,-2.013588 0.575351,0 4.755321,1.949252 5.071768,2.365127 0.439533,0.577631 0.235858,1.504603 -0.791229,3.601059 -0.542568,1.107474 -1.174336,2.422304 -1.403928,2.921846 -0.229591,0.499542 -0.851484,1.808374 -1.381984,2.908516 -1.172206,2.430906 -2.273902,4.735564 -3.309101,6.922362 -1.708295,3.608682 -2.2112,4.564403 -2.513069,4.775836 C 9.7316562,37.243248 8.8597963,37.05566 6.870697,36.01827 Z"
         id="path2-9"
         sodipodi:nodetypes="sssssssssssscs" /><path
         style="fill:#c52529;fill-opacity:1;stroke:#000000;stroke-width:0.1;stroke-dasharray:none"
         d="m 62.050062,36.743701 c -0.6193,-0.426838 -0.55781,-0.323037 -2.05843,-3.474689 -2.24058,-4.705742 -2.98158,-6.230581 -5.40919,-11.131088 -3.10335,-6.264603 -3.10169,-6.255169 -1.25382,-7.125459 0.49221,-0.231817 1.49952,-0.715941 2.23846,-1.075831 1.51235,-0.736565 1.94405,-0.793827 2.5271,-0.335205 0.28423,0.223578 1.83113,3.187483 5.16594,9.898077 5.31634,10.697976 5.21665,10.432807 4.255,11.318016 -0.27788,0.255794 -0.89874,0.628519 -1.37968,0.828277 -0.48095,0.199765 -1.3386,0.585704 -1.9059,0.857643 -1.16029,0.556197 -1.64375,0.609493 -2.17948,0.240259 z"
         id="path2-6"
         sodipodi:nodetypes="sssssssssss" /></g></g></svg>
