<?xml version="1.0" encoding="UTF-8" standalone="no"?>
<svg
   version="1.1"
   width="526.8"
   height="576.24"
   viewBox="0 0 526.8 576.24"
   id="svg24"
   sodipodi:docname="QUDYMA_logo.svg"
   inkscape:version="1.4.2 (1:1.4.2+202505120738+ebf0e940d0)"
   inkscape:export-filename="QUDYMA_logo.png"
   inkscape:export-xdpi="96"
   inkscape:export-ydpi="96"
   xmlns:inkscape="http://www.inkscape.org/namespaces/inkscape"
   xmlns:sodipodi="http://sodipodi.sourceforge.net/DTD/sodipodi-0.dtd"
   xmlns="http://www.w3.org/2000/svg"
   xmlns:svg="http://www.w3.org/2000/svg">
  <defs
     id="defs24" />
  <sodipodi:namedview
     id="namedview24"
     pagecolor="#ffffff"
     bordercolor="#000000"
     borderopacity="0.25"
     inkscape:showpageshadow="2"
     inkscape:pageopacity="0.0"
     inkscape:pagecheckerboard="0"
     inkscape:deskcolor="#d1d1d1"
     inkscape:zoom="1.0221782"
     inkscape:cx="93.427937"
     inkscape:cy="316.48102"
     inkscape:window-width="1858"
     inkscape:window-height="1016"
     inkscape:window-x="0"
     inkscape:window-y="0"
     inkscape:window-maximized="1"
     inkscape:current-layer="svg24" />
  <circle
     style="fill:#ffffff;fill-rule:evenodd;stroke:none;stroke-width:0.437969;stroke-miterlimit:2.4"
     id="path25"
     cx="263.39999"
     cy="288.12"
     r="258.4725" />
  <g
     id="g1">
    <path
       d="m 188.19282,243.73767 c -11.65975,-30.3477 -28.46374,-60.78822 -21.23468,-84.09104 2.07321,-6.68157 5.5699,-13.77793 10.12822,-20.87501 -35.06801,1.63885 -79.33765,19.12014 -93.898816,44.34099 -14.561165,25.22086 -7.565604,72.30004 8.549204,103.48964 3.867246,-7.49665 8.263852,-14.07307 13.014122,-19.20933 16.56578,-17.91131 51.32996,-18.57918 83.44195,-23.65525 z"
       fill="#4a4a4a"
       fill-rule="evenodd"
       id="path1"
       style="stroke-width:0.725154" />
    <path
       stroke-width="0.725154"
       stroke-linecap="round"
       stroke-linejoin="round"
       fill="none"
       stroke="#4a4a4a"
       d="m 188.19282,243.73767 c -11.65975,-30.3477 -28.46374,-60.78822 -21.23468,-84.09104 2.07321,-6.68157 5.5699,-13.77793 10.12822,-20.87501 -35.06801,1.63885 -79.33765,19.12014 -93.898816,44.34099 -14.561165,25.22086 -7.565604,72.30004 8.549204,103.48964 3.867246,-7.49665 8.263852,-14.07307 13.014122,-19.20933 16.56578,-17.91131 51.32996,-18.57918 83.44195,-23.65525 z"
       id="path2" />
    <path
       d="m 433.13535,286.60225 c -3.86724,7.49591 -8.26385,14.07234 -13.01361,19.2086 -16.56615,17.91203 -51.33003,18.5799 -83.44203,23.65598 11.65975,30.34697 28.46375,60.78821 21.23469,84.09031 -2.07322,6.68157 -5.57064,13.77771 -10.12823,20.87486 35.06773,-1.63877 79.33766,-19.11999 93.89875,-44.34084 14.56109,-25.22086 7.56553,-72.30004 -8.54957,-103.48891 z"
       fill="#4a4a4a"
       fill-rule="evenodd"
       id="path3"
       style="stroke-width:0.725154" />
    <path
       stroke-width="0.725154"
       stroke-linecap="round"
       stroke-linejoin="round"
       fill="none"
       stroke="#4a4a4a"
       d="m 433.13535,286.60225 c -3.86724,7.49591 -8.26385,14.07234 -13.01361,19.2086 -16.56615,17.91203 -51.33003,18.5799 -83.44203,23.65598 11.65975,30.34697 28.46375,60.78821 21.23469,84.09031 -2.07322,6.68157 -5.57064,13.77771 -10.12823,20.87486 35.06773,-1.63877 79.33766,-19.11999 93.89875,-44.34084 14.56109,-25.22086 7.56553,-72.30004 -8.54957,-103.48891 z"
       id="path4" />
    <path
       d="m 188.19282,329.46683 c 5.61124,-14.57632 10.03033,-29.13234 10.03033,-42.86458 0,-13.73225 -4.41909,-28.28826 -10.03033,-42.86458 -32.11199,5.07607 -66.87617,5.74394 -83.44195,23.65525 -4.75027,5.13626 -9.146876,11.71268 -13.014122,19.20933 3.867246,7.49591 8.263852,14.07234 13.014122,19.2086 16.56578,17.91203 51.32996,18.5799 83.44195,23.65598 z"
       fill="#4a4a4a"
       fill-rule="evenodd"
       id="path5"
       style="stroke-width:0.725154" />
    <path
       stroke-width="0.725154"
       stroke-linecap="round"
       stroke-linejoin="round"
       fill="none"
       stroke="#4a4a4a"
       d="m 188.19282,329.46683 c 5.61124,-14.57632 10.03033,-29.13234 10.03033,-42.86458 0,-13.73225 -4.41909,-28.28826 -10.03033,-42.86458 -32.11199,5.07607 -66.87617,5.74394 -83.44195,23.65525 -4.75027,5.13626 -9.146876,11.71268 -13.014122,19.20933 3.867246,7.49591 8.263852,14.07234 13.014122,19.2086 16.56578,17.91203 51.32996,18.5799 83.44195,23.65598 z"
       id="path6" />
    <path
       d="m 433.13535,286.60225 c -3.86724,-7.49665 -8.26385,-14.07307 -13.01361,-19.20933 -16.56615,-17.91131 -51.33003,-18.57918 -83.44203,-23.65525 -5.61124,14.57632 -10.03033,29.13233 -10.03033,42.86458 0,13.73224 4.41909,28.28826 10.03033,42.86458 32.112,-5.07608 66.87588,-5.74395 83.44203,-23.65598 4.74976,-5.13626 9.14637,-11.71269 13.01361,-19.2086 z"
       fill="#4a4a4a"
       fill-rule="evenodd"
       id="path7"
       style="stroke-width:0.725154" />
    <path
       stroke-width="0.725154"
       stroke-linecap="round"
       stroke-linejoin="round"
       fill="none"
       stroke="#4a4a4a"
       d="m 433.13535,286.60225 c -3.86724,-7.49665 -8.26385,-14.07307 -13.01361,-19.20933 -16.56615,-17.91131 -51.33003,-18.57918 -83.44203,-23.65525 -5.61124,14.57632 -10.03033,29.13233 -10.03033,42.86458 0,13.73224 4.41909,28.28826 10.03033,42.86458 32.112,-5.07608 66.87588,-5.74395 83.44203,-23.65598 4.74976,-5.13626 9.14637,-11.71269 13.01361,-19.2086 z"
       id="path8" />
    <path
       d="m 188.19282,329.46683 c -32.11199,-5.07608 -66.87617,-5.74395 -83.44195,-23.65598 -4.75027,-5.13626 -9.146876,-11.71269 -13.014122,-19.2086 -16.114808,31.18887 -23.110369,78.26805 -8.549204,103.48891 14.561166,25.22085 58.830806,42.70207 93.898816,44.34084 -4.55832,-7.09715 -8.05501,-14.19329 -10.12822,-20.87486 -7.22906,-23.3021 9.57493,-53.74334 21.23468,-84.09031 z"
       fill="#b5d19d"
       fill-rule="evenodd"
       id="path9"
       style="stroke-width:0.725154" />
    <path
       stroke-width="0.652639"
       stroke-linecap="round"
       stroke-linejoin="round"
       fill="none"
       stroke="#b5d19d"
       d="m 188.19282,329.46683 c -32.11199,-5.07608 -66.87617,-5.74395 -83.44195,-23.65598 -4.75027,-5.13626 -9.146876,-11.71269 -13.014122,-19.2086 -16.114808,31.18887 -23.110369,78.26805 -8.549204,103.48891 14.561166,25.22085 58.830806,42.70207 93.898816,44.34084 -4.55832,-7.09715 -8.05501,-14.19329 -10.12822,-20.87486 -7.22906,-23.3021 9.57493,-53.74334 21.23468,-84.09031 z"
       id="path10" />
    <path
       d="m 433.13535,286.60225 c 16.1151,-31.1896 23.11066,-78.26878 8.54957,-103.48964 -14.56109,-25.22085 -58.83102,-42.70214 -93.89875,-44.34099 4.55759,7.09708 8.05501,14.19344 10.12823,20.87501 7.22906,23.30282 -9.57494,53.74334 -21.23469,84.09104 32.112,5.07607 66.87588,5.74394 83.44203,23.65525 4.74976,5.13626 9.14637,11.71268 13.01361,19.20933 z"
       fill="#b5d19d"
       fill-rule="evenodd"
       id="path11"
       style="stroke-width:0.725154" />
    <path
       stroke-width="0.652639"
       stroke-linecap="round"
       stroke-linejoin="round"
       fill="none"
       stroke="#b5d19d"
       d="m 433.13535,286.60225 c 16.1151,-31.1896 23.11066,-78.26878 8.54957,-103.48964 -14.56109,-25.22085 -58.83102,-42.70214 -93.89875,-44.34099 4.55759,7.09708 8.05501,14.19344 10.12823,20.87501 7.22906,23.30282 -9.57494,53.74334 -21.23469,84.09104 32.112,5.07607 66.87588,5.74394 83.44203,23.65525 4.74976,5.13626 9.14637,11.71268 13.01361,19.20933 z"
       id="path12" />
    <path
       d="m 262.43627,372.33141 c -9.81786,-12.14851 -20.21367,-23.25352 -32.1062,-30.11928 -11.89253,-6.86648 -26.70815,-10.31749 -42.13725,-12.7453 l -1.00216,2.59532 c -11.59377,29.47679 -27.25636,58.85496 -20.23252,81.49499 2.07321,6.68157 5.5699,13.77771 10.12822,20.87486 8.42556,0.39891 16.31887,-0.12044 23.14257,-1.66611 23.7952,-5.39043 41.75582,-35.16286 62.20734,-60.43448 z"
       fill="#b5d19d"
       fill-rule="evenodd"
       id="path13"
       style="stroke-width:0.725154" />
    <path
       stroke-width="0.652639"
       stroke-linecap="round"
       stroke-linejoin="round"
       fill="none"
       stroke="#b5d19d"
       d="m 262.43627,372.33141 c -9.81786,-12.14851 -20.21367,-23.25352 -32.1062,-30.11928 -11.89253,-6.86648 -26.70815,-10.31749 -42.13725,-12.7453 l -1.00216,2.59532 c -11.59377,29.47679 -27.25636,58.85496 -20.23252,81.49499 2.07321,6.68157 5.5699,13.77771 10.12822,20.87486 8.42556,0.39891 16.31887,-0.12044 23.14257,-1.66611 23.7952,-5.39043 41.75582,-35.16286 62.20734,-60.43448 z"
       id="path14" />
    <path
       d="m 336.67971,243.73767 c 11.65975,-30.3477 28.46375,-60.78822 21.23469,-84.09104 -2.07322,-6.68157 -5.57064,-13.77793 -10.12823,-20.87501 -8.42556,-0.39883 -16.31959,0.12038 -23.14256,1.6664 -23.79521,5.3908 -41.75582,35.16345 -62.20734,60.43506 9.81786,12.14779 20.21366,23.25279 32.10619,30.11855 11.89253,6.86649 26.70815,10.31749 42.13725,12.74604 z"
       fill="#b5d19d"
       fill-rule="evenodd"
       id="path15"
       style="stroke-width:0.725154" />
    <path
       stroke-width="0.652639"
       stroke-linecap="round"
       stroke-linejoin="round"
       fill="none"
       stroke="#b5d19d"
       d="m 336.67971,243.73767 c 11.65975,-30.3477 28.46375,-60.78822 21.23469,-84.09104 -2.07322,-6.68157 -5.57064,-13.77793 -10.12823,-20.87501 -8.42556,-0.39883 -16.31959,0.12038 -23.14256,1.6664 -23.79521,5.3908 -41.75582,35.16345 -62.20734,60.43506 9.81786,12.14779 20.21366,23.25279 32.10619,30.11855 11.89253,6.86649 26.70815,10.31749 42.13725,12.74604 z"
       id="path16" />
    <path
       d="m 347.78617,138.77162 c -18.95335,-29.55003 -56.22772,-59.147914 -85.3499,-59.147914 -29.12219,0 -66.39656,29.597884 -85.34991,59.147914 8.42556,-0.39883 16.31887,0.12038 23.14257,1.6664 23.7952,5.3908 41.75582,35.16345 62.20734,60.43506 20.45152,-25.27161 38.41213,-55.04426 62.20734,-60.43506 6.82297,-1.54602 14.717,-2.06523 23.14256,-1.6664 z"
       fill="#c52529"
       fill-rule="evenodd"
       id="path17"
       style="stroke-width:0.725154" />
    <path
       stroke-width="0.725154"
       stroke-linecap="round"
       stroke-linejoin="round"
       fill="none"
       stroke="#c52529"
       d="m 347.78617,138.77162 c -18.95335,-29.55003 -56.22772,-59.147914 -85.3499,-59.147914 -29.12219,0 -66.39656,29.597884 -85.34991,59.147914 8.42556,-0.39883 16.31887,0.12038 23.14257,1.6664 23.7952,5.3908 41.75582,35.16345 62.20734,60.43506 20.45152,-25.27161 38.41213,-55.04426 62.20734,-60.43506 6.82297,-1.54602 14.717,-2.06523 23.14256,-1.6664 z"
       id="path18" />
    <path
       d="m 347.78617,434.432 c -8.42556,0.39891 -16.31959,-0.12044 -23.14256,-1.66611 -23.79521,-5.39043 -41.75582,-35.16286 -62.20734,-60.43448 -20.45152,25.27162 -38.41214,55.04405 -62.20734,60.43448 -6.8237,1.54567 -14.71701,2.06502 -23.14257,1.66611 18.95335,29.55054 56.22772,59.1485 85.34991,59.1485 29.12218,0 66.39655,-29.59796 85.3499,-59.1485 z"
       fill="#c52529"
       fill-rule="evenodd"
       id="path19"
       style="stroke-width:0.725154" />
    <path
       stroke-width="0.725154"
       stroke-linecap="round"
       stroke-linejoin="round"
       fill="none"
       stroke="#c52529"
       d="m 347.78617,434.432 c -8.42556,0.39891 -16.31959,-0.12044 -23.14256,-1.66611 -23.79521,-5.39043 -41.75582,-35.16286 -62.20734,-60.43448 -20.45152,25.27162 -38.41214,55.04405 -62.20734,60.43448 -6.8237,1.54567 -14.71701,2.06502 -23.14257,1.66611 18.95335,29.55054 56.22772,59.1485 85.34991,59.1485 29.12218,0 66.39655,-29.59796 85.3499,-59.1485 z"
       id="path20" />
    <path
       d="m 262.43627,200.87308 c -20.45152,-25.27161 -38.41214,-55.04426 -62.20734,-60.43506 -6.8237,-1.54602 -14.71701,-2.06523 -23.14257,-1.6664 -4.55832,7.09708 -8.05501,14.19344 -10.12822,20.87501 -7.02384,22.64003 8.63875,52.0182 20.23252,81.49498 l 1.00216,2.59606 c 15.4291,-2.42855 30.24472,-5.87955 42.13725,-12.74604 11.89253,-6.86576 22.28834,-17.97076 32.1062,-30.11855 z"
       fill="#c52529"
       fill-rule="evenodd"
       id="path21"
       style="stroke-width:0.725154" />
    <path
       stroke-width="0.725154"
       stroke-linecap="round"
       stroke-linejoin="round"
       fill="none"
       stroke="#c52529"
       d="m 262.43627,200.87308 c -20.45152,-25.27161 -38.41214,-55.04426 -62.20734,-60.43506 -6.8237,-1.54602 -14.71701,-2.06523 -23.14257,-1.6664 -4.55832,7.09708 -8.05501,14.19344 -10.12822,20.87501 -7.02384,22.64003 8.63875,52.0182 20.23252,81.49498 l 1.00216,2.59606 c 15.4291,-2.42855 30.24472,-5.87955 42.13725,-12.74604 11.89253,-6.86576 22.28834,-17.97076 32.1062,-30.11855 z"
       id="path22" />
    <path
       d="m 337.68188,332.06215 -1.00217,-2.59532 c -15.4291,2.42781 -30.24472,5.87882 -42.13725,12.7453 -11.89253,6.86576 -22.28833,17.97077 -32.10619,30.11928 20.45152,25.27162 38.41213,55.04405 62.20734,60.43448 6.82297,1.54567 14.717,2.06502 23.14256,1.66611 4.55759,-7.09715 8.05501,-14.19329 10.12823,-20.87486 7.02384,-22.64003 -8.63876,-52.0182 -20.23252,-81.49499 z"
       fill="#c52529"
       fill-rule="evenodd"
       id="path23"
       style="stroke-width:0.725154" />
    <path
       stroke-width="0.725154"
       stroke-linecap="round"
       stroke-linejoin="round"
       fill="none"
       stroke="#c52529"
       d="m 337.68188,332.06215 -1.00217,-2.59532 c -15.4291,2.42781 -30.24472,5.87882 -42.13725,12.7453 -11.89253,6.86576 -22.28833,17.97077 -32.10619,30.11928 20.45152,25.27162 38.41213,55.04405 62.20734,60.43448 6.82297,1.54567 14.717,2.06502 23.14256,1.66611 4.55759,-7.09715 8.05501,-14.19329 10.12823,-20.87486 7.02384,-22.64003 -8.63876,-52.0182 -20.23252,-81.49499 z"
       id="path24" />
  </g>
</svg>
