<?xml version="1.0" encoding="UTF-8" standalone="no"?>
<!-- Created with Inkscape (http://www.inkscape.org/) -->

<svg
   width="72.356628mm"
   height="72.356628mm"
   viewBox="0 0 72.356629 72.356628"
   version="1.1"
   id="svg1"
   xml:space="preserve"
   inkscape:version="1.4.2 (1:1.4.2+202505120738+ebf0e940d0)"
   sodipodi:docname="software_icon.svg"
   inkscape:export-filename="members_icon.png"
   inkscape:export-xdpi="96"
   inkscape:export-ydpi="96"
   xmlns:inkscape="http://www.inkscape.org/namespaces/inkscape"
   xmlns:sodipodi="http://sodipodi.sourceforge.net/DTD/sodipodi-0.dtd"
   xmlns="http://www.w3.org/2000/svg"
   xmlns:svg="http://www.w3.org/2000/svg"><sodipodi:namedview
     id="namedview1"
     pagecolor="#ffffff"
     bordercolor="#000000"
     borderopacity="0.25"
     inkscape:showpageshadow="2"
     inkscape:pageopacity="0.0"
     inkscape:pagecheckerboard="0"
     inkscape:deskcolor="#d1d1d1"
     inkscape:document-units="mm"
     inkscape:zoom="2.0989208"
     inkscape:cx="128.39932"
     inkscape:cy="133.40189"
     inkscape:window-width="1858"
     inkscape:window-height="1043"
     inkscape:window-x="0"
     inkscape:window-y="0"
     inkscape:window-maximized="1"
     inkscape:current-layer="layer1" /><defs
     id="defs1" /><g
     inkscape:label="Layer 1"
     inkscape:groupmode="layer"
     id="layer1"><rect
       style="fill:#ffffff;fill-rule:evenodd;stroke-width:5.29167;stroke-miterlimit:2.4"
       id="rect1"
       width="72.356628"
       height="72.356628"
       x="0"
       y="0" /><rect
       style="fill:#b5d19d;fill-opacity:1;fill-rule:evenodd;stroke:none;stroke-width:1.2;stroke-miterlimit:2.4"
       id="rect2"
       width="10.494233"
       height="10.494233"
       x="0"
       y="-16.544962" /><rect
       style="fill:#4a4a4a;fill-opacity:1;fill-rule:evenodd;stroke:none;stroke-width:1.2;stroke-miterlimit:2.4"
       id="rect2-9"
       width="10.494233"
       height="10.494233"
       x="10.494232"
       y="-16.544962" /><rect
       style="fill:#c52529;fill-opacity:1;fill-rule:evenodd;stroke:none;stroke-width:1.2;stroke-miterlimit:2.4"
       id="rect2-0"
       width="10.494233"
       height="10.494233"
       x="20.988464"
       y="-16.544962" /><g
       id="g1"
       style="stroke:#000000;stroke-width:0.1;stroke-dasharray:none"><path
         style="fill:#b5d19d;stroke-width:0.1;fill-opacity:1;stroke:#000000;stroke-dasharray:none"
         d="M 31.032358,62.921633 C 30.566435,62.69184 30.379336,62.320951 30.246565,61.36395 30.161655,60.752075 30.1282,60.709354 29.543758,60.467079 c -0.337525,-0.139917 -0.781881,-0.349311 -0.987462,-0.465326 -0.347243,-0.195958 -0.394359,-0.19354 -0.663712,0.03401 -0.159471,0.134734 -0.319802,0.280827 -0.356313,0.324657 -0.180024,0.216131 -0.701485,0.384917 -1.189198,0.384917 -0.482794,0 -0.628616,-0.08455 -1.316385,-0.763277 -1.27522,-1.258463 -1.368599,-1.705938 -0.574724,-2.754113 l 0.502443,-0.66339 -0.37667,-0.925598 c -0.207175,-0.509078 -0.439753,-0.964582 -0.51685,-1.01223 -0.07706,-0.04764 -0.432174,-0.121214 -0.789067,-0.163483 -1.203761,-0.142568 -1.617396,-0.96615 -1.391852,-2.771315 0.124018,-0.992618 0.509506,-1.418487 1.376993,-1.521227 0.36506,-0.04324 0.721817,-0.115825 0.792776,-0.161307 0.07093,-0.04548 0.314867,-0.526668 0.541997,-1.069302 l 0.412977,-0.986608 -0.339929,-0.445666 c -0.805793,-1.056454 -0.688783,-1.767056 0.473536,-2.87572 1.002533,-0.956253 1.670338,-1.041291 2.567165,-0.326903 l 0.505069,0.402326 0.95511,-0.401215 c 0.525315,-0.220669 1.059657,-0.433313 1.187416,-0.472543 0.164722,-0.05058 0.232305,-0.209633 0.232305,-0.54669 0,-0.589846 0.280368,-1.15088 0.718637,-1.438046 0.446649,-0.292656 2.315647,-0.30403 2.869797,-0.01747 0.47888,0.24764 0.79212,0.824239 0.79212,1.458119 0,0.428863 0.0511,0.498173 0.49779,0.674622 0.27379,0.108159 0.77856,0.342687 1.12174,0.521172 l 0.62395,0.324519 0.37163,-0.304563 c 0.20439,-0.16751 0.56577,-0.382465 0.80305,-0.477678 0.60751,-0.243774 1.03196,-0.03562 2.01509,0.988198 0.97714,1.017589 1.04873,1.455681 0.40251,2.462734 l -0.40319,0.628338 0.32369,0.843466 c 0.17803,0.463907 0.3576,0.948003 0.39904,1.075769 0.0574,0.176957 0.22181,0.232302 0.69012,0.232302 0.52218,0 0.68279,0.06798 1.06612,0.45133 0.44277,0.442769 0.45133,0.472817 0.45133,1.584286 0,0.623127 -0.0582,1.286156 -0.12943,1.473398 -0.17384,0.457236 -0.88542,0.870434 -1.50003,0.871043 -0.49543,4.9e-4 -0.5064,0.01204 -0.9624,1.012648 -0.53472,1.173368 -0.5435,1.238885 -0.21371,1.592874 0.39425,0.423178 0.54893,0.793357 0.54893,1.313685 0,0.413372 -0.12067,0.610484 -0.81882,1.337536 -1.2436,1.295079 -1.72254,1.368393 -2.9023,0.444274 -0.38263,-0.299711 -0.51637,-0.340721 -0.72692,-0.22289 -0.14192,0.07943 -0.61399,0.272499 -1.04905,0.429063 l -0.79101,0.28466 -0.14767,0.720711 c -0.17403,0.849294 -0.40292,1.246292 -0.83106,1.441361 -0.47832,0.217938 -2.284833,0.171796 -2.776979,-0.07093 z m 2.451799,-6.843431 c 3.01769,-0.745349 4.05916,-4.32083 1.89033,-6.489658 -1.09474,-1.09474 -2.627045,-1.452464 -3.995056,-0.93266 -1.860301,0.70686 -2.928218,2.532549 -2.527858,4.321575 0.210653,0.941296 0.433752,1.375598 1.01301,1.972042 0.562482,0.579168 1.11089,0.893151 1.919496,1.098976 0.806893,0.205389 0.97684,0.208359 1.700078,0.02972 z"
         id="path1-2"
         sodipodi:nodetypes="ccssssssscscssscccssscsssssssscsssscssscscsssssssscssccssssssss" /><path
         style="fill:#4a4a4a;stroke-width:0.1;fill-opacity:1;stroke:#000000;stroke-dasharray:none"
         d="m 24.738514,41.195819 c -0.506177,-0.341105 -0.752284,-0.971353 -0.789357,-2.02136 -0.04117,-1.164574 -0.09674,-1.242296 -1.192189,-1.66607 -0.54728,-0.211715 -1.209481,-0.50431 -1.47155,-0.650211 -0.45209,-0.251688 -0.489623,-0.253555 -0.732867,-0.03645 -0.141006,0.125855 -0.623419,0.512566 -1.072039,0.85936 -0.688691,0.532379 -0.906293,0.630534 -1.397838,0.630534 -0.568793,0 -0.619393,-0.03764 -2.201487,-1.637952 -1.487878,-1.505003 -1.619313,-1.678103 -1.619313,-2.132631 0,-0.643817 0.346702,-1.250872 1.36921,-2.397399 0.287074,-0.321894 0.265631,-0.4298 -0.409815,-2.062148 l -0.521815,-1.261069 -0.982068,-0.08136 c -1.400999,-0.116068 -1.770163,-0.220198 -2.126908,-0.599937 -0.307854,-0.327695 -0.315344,-0.392432 -0.315344,-2.725255 v -2.389587 l 0.402645,-0.359764 c 0.334688,-0.299044 0.620639,-0.389694 1.694226,-0.537093 1.222098,-0.167789 1.296108,-0.196051 1.375771,-0.525369 0.04631,-0.191423 0.322376,-0.907024 0.613487,-1.590225 0.304144,-0.713782 0.475626,-1.278451 0.403125,-1.32744 -0.06939,-0.04689 -0.435847,-0.497375 -0.814342,-1.001074 -0.533202,-0.709584 -0.687975,-1.02346 -0.687298,-1.393813 0.0012,-0.63872 0.246633,-0.978374 1.819105,-2.517131 1.816961,-1.778006 2.135384,-1.818171 3.777641,-0.476505 l 0.752464,0.614736 0.906836,-0.419465 c 1.205372,-0.557559 1.356337,-0.621371 1.916283,-0.81002 0.453094,-0.152648 0.486536,-0.204977 0.630526,-0.986473 0.08363,-0.453901 0.152072,-0.981716 0.152072,-1.172921 0,-0.196423 0.168361,-0.5362218 0.387036,-0.7811598 l 0.387045,-0.433512 2.314136,-0.04151 2.314136,-0.04151 0.408553,0.34377 c 0.44046,0.370628 0.53545,0.6574238 0.671666,2.0279268 l 0.08826,0.888008 0.941003,0.347096 c 0.517548,0.190903 1.25921,0.505665 1.64813,0.699472 0.748166,0.372827 0.733214,0.375048 1.380346,-0.204991 0.726889,-0.651524 1.325225,-0.959315 1.838708,-0.94585 0.492537,0.01291 0.638582,0.12348 2.120243,1.605135 1.465976,1.465983 1.596437,1.637145 1.656945,2.17398 0.06215,0.551524 0.02361,0.635274 -0.720819,1.564592 l -0.78651,0.981876 0.49085,1.141737 c 0.269967,0.627956 0.532935,1.335875 0.584373,1.573155 0.0514,0.23728 0.103719,0.432479 0.116174,0.433776 3.424216,0.356712 3.402683,0.335073 3.405658,3.422393 0.0026,2.818874 -0.170373,3.090485 -2.077628,3.260287 -0.523184,0.04658 -1.040391,0.118898 -1.149345,0.160706 -0.108962,0.0418 -0.298934,0.385333 -0.422183,0.763387 -0.123241,0.378054 -0.404145,1.061519 -0.624243,1.518811 l -0.400156,0.831441 0.777602,1.026976 c 0.696378,0.919701 0.777644,1.09328 0.778011,1.661746 l 4.09e-4,0.634772 -1.603692,1.588691 c -1.55817,1.543586 -1.620195,1.588691 -2.1848,1.588691 -0.508649,0 -0.711382,-0.100992 -1.626095,-0.810022 l -1.045003,-0.810023 -1.018014,0.455236 c -0.559907,0.250381 -1.267147,0.533285 -1.571639,0.628678 -0.54556,0.170911 -0.555722,0.185443 -0.696907,0.996193 -0.07877,0.452514 -0.143282,1.0141 -0.143282,1.247968 0,0.233868 -0.09847,0.575503 -0.21882,0.759189 -0.410547,0.626569 -0.795819,0.718638 -3.007182,0.718638 -1.906402,0 -2.07473,-0.02037 -2.492122,-0.301661 z m 4.788919,-10.592533 c 3.714055,-1.529229 4.825116,-6.002379 2.270243,-9.140093 -1.559653,-1.915456 -4.571456,-2.557621 -6.864033,-1.463525 -1.057926,0.504877 -2.221378,1.602628 -2.667322,2.516691 -0.377466,0.773713 -0.703527,2.033199 -0.703527,2.717554 0,0.749056 0.414111,2.166812 0.85848,2.939098 0.719848,1.251048 2.172074,2.340489 3.594309,2.696411 0.859379,0.21506 2.677858,0.07725 3.51185,-0.266136 z"
         id="path1"
         sodipodi:nodetypes="scssssssssscssscsssssscsscsssscccccscssssccccscccscsccsscssscsscscssscssssssc" /><path
         style="fill:#c52529;stroke-width:0.1;fill-opacity:1;stroke:#000000;stroke-dasharray:none"
         d="m 51.460677,52.123653 c -0.51014,-0.319077 -0.64337,-0.580313 -0.87018,-1.706337 l -0.16856,-0.83685 -1.27994,-0.4287 -1.27995,-0.4287 -0.77125,0.690676 c -0.80148,0.71776 -1.31609,0.905446 -1.89001,0.689327 -0.17727,-0.06675 -0.82523,-0.548344 -1.43991,-1.070204 -1.59113,-1.350847 -1.67478,-1.688685 -0.76735,-3.099039 l 0.58993,-0.916876 -0.26164,-0.399109 c -0.1439,-0.21951 -0.40454,-0.703936 -0.5792,-1.076502 -0.3026,-0.645486 -0.34708,-0.681439 -0.94417,-0.763278 -0.34462,-0.04724 -0.82639,-0.08588 -1.07057,-0.08588 -0.29865,0 -0.57525,-0.119498 -0.84495,-0.365046 -0.47928,-0.436351 -0.66518,-1.24622 -0.66518,-2.897899 0,-1.451703 0.20215,-1.711372 1.58531,-2.036397 l 0.98044,-0.230392 0.29298,-0.985152 c 0.16113,-0.541833 0.35339,-1.134488 0.42725,-1.317011 0.12053,-0.297893 0.0611,-0.408979 -0.58027,-1.085284 -0.64158,-0.67648 -0.71455,-0.813008 -0.71455,-1.336865 0,-0.529036 0.0876,-0.687777 0.93928,-1.702341 0.51661,-0.615394 1.06915,-1.222108 1.22788,-1.34825 0.48682,-0.386869 1.12859,-0.293727 2.00892,0.291558 l 0.79111,0.525967 0.40359,-0.27027 c 0.22197,-0.148648 0.79852,-0.460192 1.28122,-0.692319 l 0.87763,-0.42205 0.0682,-0.862836 c 0.13438,-1.699883 0.46096,-1.936499 2.85988,-2.072073 l 1.61154,-0.09108 0.40345,0.431893 c 0.22189,0.237541 0.40344,0.544188 0.40344,0.681437 0,0.13725 0.0709,0.514567 0.15752,0.838482 0.14657,0.547993 0.19964,0.599944 0.76328,0.747248 0.95966,0.250797 1.52483,0.438998 1.66108,0.55314 0.25262,0.211633 0.55093,0.09446 1.11702,-0.438764 1.08216,-1.019319 1.70608,-0.927074 3.33654,0.493297 1.47564,1.285498 1.5824,1.727922 0.72762,3.015306 l -0.4754,0.716006 0.60669,1.179041 c 0.33368,0.648472 0.71001,1.219996 0.83629,1.270054 0.12627,0.05006 0.52826,0.09609 0.89331,0.102302 1.44365,0.02455 1.76238,0.530757 1.8193,2.889453 0.0475,1.968281 -0.0177,2.073686 -1.49824,2.421592 l -0.96681,0.227185 -0.22347,0.785473 c -0.12292,0.432011 -0.3209,1.016269 -0.43994,1.298353 l -0.21646,0.512877 0.65821,0.720184 c 1.22512,1.340478 1.1122,1.777057 -1.06775,4.127984 -0.71282,0.768723 -1.21887,0.772619 -2.38585,0.01837 -0.64833,-0.419039 -0.89424,-0.51469 -1.05889,-0.41187 -0.38566,0.240849 -1.51499,0.80893 -1.87324,0.942285 -0.32766,0.12197 -0.35678,0.202001 -0.44786,1.23096 -0.0879,0.993397 -0.13781,1.140755 -0.51239,1.514002 -0.3786,0.377245 -0.51388,0.421236 -1.54329,0.501822 -0.62059,0.04858 -1.3374,0.120799 -1.59294,0.160482 -0.33276,0.05168 -0.58779,-0.0049 -0.89873,-0.199379 z m 2.63394,-8.705573 c 1.86483,-0.644984 3.07382,-2.41565 3.07877,-4.509109 0.002,-0.935936 -0.0498,-1.168829 -0.43795,-1.962608 -0.51895,-1.061189 -1.30143,-1.833282 -2.36163,-2.33028 -0.6409,-0.300444 -0.93165,-0.35314 -1.94803,-0.353066 -1.01058,7.3e-5 -1.30722,0.05325 -1.92479,0.345078 -3.07866,1.454767 -3.74456,5.545315 -1.2672,7.78432 1.01708,0.91922 1.76901,1.212141 3.13515,1.221322 0.69677,0.0047 1.36574,-0.07116 1.72568,-0.195657 z"
         id="path1-5"
         sodipodi:nodetypes="cscccsssscsssssssccccscsscsscsscsscssssscsscssccccssssscssscccccsscscc" /></g></g></svg>
