<?xml version="1.0" encoding="UTF-8" standalone="no"?>
<!-- Created with Inkscape (http://www.inkscape.org/) -->

<svg
   width="72.356628mm"
   height="72.356628mm"
   viewBox="0 0 72.356629 72.356628"
   version="1.1"
   id="svg1"
   xml:space="preserve"
   inkscape:version="1.4.2 (1:1.4.2+202505120738+ebf0e940d0)"
   sodipodi:docname="toposc_icon.svg"
   inkscape:export-filename="members_icon.png"
   inkscape:export-xdpi="96"
   inkscape:export-ydpi="96"
   xmlns:inkscape="http://www.inkscape.org/namespaces/inkscape"
   xmlns:sodipodi="http://sodipodi.sourceforge.net/DTD/sodipodi-0.dtd"
   xmlns="http://www.w3.org/2000/svg"
   xmlns:svg="http://www.w3.org/2000/svg"><sodipodi:namedview
     id="namedview1"
     pagecolor="#ffffff"
     bordercolor="#000000"
     borderopacity="0.25"
     inkscape:showpageshadow="2"
     inkscape:pageopacity="0.0"
     inkscape:pagecheckerboard="0"
     inkscape:deskcolor="#d1d1d1"
     inkscape:document-units="mm"
     inkscape:zoom="2.9683221"
     inkscape:cx="126.83933"
     inkscape:cy="109.32102"
     inkscape:window-width="1858"
     inkscape:window-height="1016"
     inkscape:window-x="0"
     inkscape:window-y="0"
     inkscape:window-maximized="1"
     inkscape:current-layer="layer1" /><defs
     id="defs1"><filter
       inkscape:collect="always"
       style="color-interpolation-filters:sRGB"
       id="filter7-5-0-5-9"
       x="-0.1090435"
       y="-0.27975129"
       width="1.218087"
       height="1.5595026"><feGaussianBlur
         inkscape:collect="always"
         stdDeviation="3.6349227"
         id="feGaussianBlur7-5-3-6-4" /></filter><filter
       inkscape:collect="always"
       style="color-interpolation-filters:sRGB"
       id="filter8-4-3-5-3"
       x="-0.24379659"
       y="-0.17226796"
       width="1.4875932"
       height="1.3445359"><feGaussianBlur
         inkscape:collect="always"
         stdDeviation="1.9715553"
         id="feGaussianBlur8-7-3-0-5" /></filter><inkscape:path-effect
       effect="spiro"
       id="path-effect8-6-46-7-0-1"
       is_visible="true"
       lpeversion="1" /></defs><g
     inkscape:label="Layer 1"
     inkscape:groupmode="layer"
     id="layer1"><rect
       style="fill:#ffffff;fill-rule:evenodd;stroke-width:5.29167;stroke-miterlimit:2.4"
       id="rect1"
       width="72.356628"
       height="72.356628"
       x="0"
       y="0" /><rect
       style="fill:#b5d19d;fill-opacity:1;fill-rule:evenodd;stroke:none;stroke-width:1.2;stroke-miterlimit:2.4"
       id="rect2"
       width="10.494233"
       height="10.494233"
       x="0"
       y="-16.544962" /><rect
       style="fill:#4a4a4a;fill-opacity:1;fill-rule:evenodd;stroke:none;stroke-width:1.2;stroke-miterlimit:2.4"
       id="rect2-9"
       width="10.494233"
       height="10.494233"
       x="10.494232"
       y="-16.544962" /><rect
       style="fill:#c52529;fill-opacity:1;fill-rule:evenodd;stroke:none;stroke-width:1.2;stroke-miterlimit:2.4"
       id="rect2-0"
       width="10.494233"
       height="10.494233"
       x="20.988464"
       y="-16.544962" /><path
       style="fill:#808080;fill-opacity:1;stroke:none;stroke-width:0.499999;stroke-linejoin:round;stroke-miterlimit:2.6;filter:url(#filter7-5-0-5-9)"
       d="M 14.538461,192.72115 47.07692,207.6923 94.541532,178.12971 87.535056,176.50812 19.031331,190.426 Z"
       id="path7-3-2-2-3"
       transform="matrix(0.53600229,0,0,0.53600229,8.0290626,-55.746611)" /><path
       style="fill:#b5d19d;fill-opacity:1;stroke:#000000;stroke-width:0.268001;stroke-linejoin:round;stroke-miterlimit:2.6"
       d="m 19.246326,49.177435 8.822935,4.099881 5.477436,-9.41332 -5.444638,-13.513192 -9.31492,-1.541553 -3.493094,9.265722 z"
       id="path2-4-5-5-4" /><path
       style="fill:#b5d19d;fill-opacity:1;stroke:#000000;stroke-width:0.268001;stroke-linejoin:round;stroke-miterlimit:2.6"
       d="M 28.069261,53.277316 54.948053,38.862146 59.638312,32.761528 33.546697,43.863996 Z"
       id="path4-5-8-4-3" /><path
       style="fill:#d6e6c8;fill-opacity:1;stroke:#000000;stroke-width:0.268001;stroke-linejoin:round;stroke-miterlimit:2.6"
       d="m 28.102059,30.350804 5.444638,13.513192 26.091614,-11.102468 -3.59149,-7.658567 z"
       id="path5-2-7-3-7" /><path
       style="fill:#fc9cac;fill-opacity:1;stroke:#000000;stroke-width:0.268001;stroke-linejoin:round;stroke-miterlimit:2.6"
       d="m 18.787139,28.809251 9.31492,1.541553 27.944762,-5.247843 -7.806166,-0.524783 z"
       id="path6-5-9-9-12" /><path
       style="fill:#6a9644;fill-opacity:1;stroke:none;stroke-width:0.499999;stroke-linejoin:round;stroke-miterlimit:2.6;filter:url(#filter8-4-3-5-3)"
       d="m -39.28846,167.79807 c -0.145245,-1.97778 -0.08581,-4.00403 0.542216,-5.88507 0.628025,-1.88103 1.880556,-3.61386 3.654898,-4.49954 1.596185,-0.79675 3.504556,-0.84848 5.216083,-0.3452 1.711527,0.50328 3.236995,1.52819 4.519495,2.76827 3.667299,3.54601 5.356261,8.78839 5.408653,13.88942 0.02085,2.03032 -0.205201,4.09977 -1.025954,5.95692 -0.410376,0.92857 -0.968473,1.79621 -1.67853,2.5218 -0.710057,0.72559 -1.574313,1.30683 -2.531092,1.64629 -1.718467,0.60971 -3.662387,0.40377 -5.329287,-0.33536 -1.666901,-0.73913 -3.075537,-1.97702 -4.233213,-3.3858 -2.825722,-3.43862 -4.217295,-7.89297 -4.543269,-12.33173 z"
       id="path8-4-6-4-2"
       transform="matrix(0.53600229,0,0,0.53600229,39.530154,-51.06685)"
       inkscape:original-d="m -39.28846,167.79807 c -1.514422,-4.11058 2.783655,-6.9375 4.197114,-10.38461 1.413463,-3.44712 6.504808,1.60096 9.735578,2.42307 3.230769,0.82212 3.605769,9.27404 5.408653,13.88942 1.802885,4.61539 -3.504807,6.75 -5.235576,10.12501 -1.73077,3.37499 -6.360576,-2.46635 -9.5625,-3.72116 -3.201922,-1.25481 -3.028847,-8.22115 -4.543269,-12.33173 z"
       inkscape:path-effect="#path-effect8-6-46-7-0-1" /><path
       style="fill:#c52529;fill-opacity:1;stroke:#000000;stroke-width:0.317029;stroke-linejoin:round;stroke-miterlimit:2.6;stroke-dasharray:none"
       d="m 15.294045,38.074967 -4.859671,-1.239382 6.24355,-15.887604 15.608875,2.675804 -4.184741,6.727013 -9.314919,-1.541552 z"
       id="path22-4-5-2" /><path
       style="fill:#c52529;fill-opacity:1;stroke:#000000;stroke-width:0.317029;stroke-linejoin:round;stroke-miterlimit:2.6;stroke-dasharray:none"
       d="m 28.102058,30.350798 27.944762,-5.247837 3.725485,-6.65887 -27.485506,5.179694 z"
       id="path23-1-5-1" /><path
       style="fill:#e3686b;fill-opacity:1;stroke:#000000;stroke-width:0.317029;stroke-linejoin:round;stroke-miterlimit:2.6;stroke-dasharray:none"
       d="m 16.677924,20.947981 15.608875,2.675804 27.485506,-5.179694 -7.327398,-2.352936 z"
       id="path24-0-7-7"
       sodipodi:nodetypes="ccccc" /></g></svg>
