<?xml version="1.0" encoding="UTF-8" standalone="no"?>
<!-- Created with Inkscape (http://www.inkscape.org/) -->

<svg
   width="72.356628mm"
   height="72.356628mm"
   viewBox="0 0 72.356629 72.356628"
   version="1.1"
   id="svg1"
   xml:space="preserve"
   inkscape:version="1.4.2 (1:1.4.2+202505120738+ebf0e940d0)"
   sodipodi:docname="vanderWaals_icon.svg"
   inkscape:export-filename="members_icon.png"
   inkscape:export-xdpi="96"
   inkscape:export-ydpi="96"
   xmlns:inkscape="http://www.inkscape.org/namespaces/inkscape"
   xmlns:sodipodi="http://sodipodi.sourceforge.net/DTD/sodipodi-0.dtd"
   xmlns="http://www.w3.org/2000/svg"
   xmlns:svg="http://www.w3.org/2000/svg"><sodipodi:namedview
     id="namedview1"
     pagecolor="#ffffff"
     bordercolor="#000000"
     borderopacity="0.25"
     inkscape:showpageshadow="2"
     inkscape:pageopacity="0.0"
     inkscape:pagecheckerboard="0"
     inkscape:deskcolor="#d1d1d1"
     inkscape:document-units="mm"
     inkscape:zoom="2.0989207"
     inkscape:cx="170.32564"
     inkscape:cy="174.61355"
     inkscape:window-width="1858"
     inkscape:window-height="1016"
     inkscape:window-x="0"
     inkscape:window-y="0"
     inkscape:window-maximized="1"
     inkscape:current-layer="layer1" /><defs
     id="defs1" /><g
     inkscape:label="Layer 1"
     inkscape:groupmode="layer"
     id="layer1"><rect
       style="fill:#ffffff;fill-rule:evenodd;stroke-width:5.29167;stroke-miterlimit:2.4"
       id="rect1"
       width="72.356628"
       height="72.356628"
       x="0"
       y="0" /><rect
       style="fill:#b5d19d;fill-opacity:1;fill-rule:evenodd;stroke:none;stroke-width:1.2;stroke-miterlimit:2.4"
       id="rect2"
       width="10.494233"
       height="10.494233"
       x="0"
       y="-16.544962" /><rect
       style="fill:#4a4a4a;fill-opacity:1;fill-rule:evenodd;stroke:none;stroke-width:1.2;stroke-miterlimit:2.4"
       id="rect2-9"
       width="10.494233"
       height="10.494233"
       x="10.494232"
       y="-16.544962" /><rect
       style="fill:#c52529;fill-opacity:1;fill-rule:evenodd;stroke:none;stroke-width:1.2;stroke-miterlimit:2.4"
       id="rect2-0"
       width="10.494233"
       height="10.494233"
       x="20.988464"
       y="-16.544962" /><path
       style="fill:#4a4a4a;fill-opacity:1;stroke:#000000;stroke-width:0.108589;stroke-dasharray:none"
       d="m 44.568857,65.751448 c -0.240594,-0.18926 -0.403434,-0.660764 -1.013668,-2.935114 -0.686401,-2.558279 -0.743519,-2.71361 -1.022428,-2.780434 -1.027586,-0.246207 -1.87052,-1.088392 -2.115425,-2.113547 -0.06629,-0.277504 -0.235702,-0.337444 -3.17446,-1.123185 l -3.104437,-0.830036 -0.518587,0.395849 c -0.692261,0.528416 -1.515911,0.702378 -2.326268,0.491328 l -0.595198,-0.155016 -1.934451,1.943479 c -1.063941,1.068912 -2.076288,2.018682 -2.249658,2.110604 -0.601131,0.318724 -1.237064,-0.09211 -1.237064,-0.799189 0,-0.280755 0.338915,-0.677423 2.0819,-2.436649 l 2.081901,-2.101307 -0.140346,-0.425248 c -0.361105,-1.094164 0.162253,-2.455526 1.187722,-3.089525 1.680734,-1.039118 3.824329,-0.0224 4.156343,1.9714 0.04475,0.268773 0.08976,0.488704 0.10001,0.488733 0.01032,3.3e-5 1.363359,0.359042 3.006913,0.797804 l 2.988272,0.797747 0.328639,-0.398696 c 0.636602,-0.772308 1.798162,-1.126449 2.786807,-0.849645 l 0.528985,0.148106 2.167789,-2.165545 c 1.964593,-1.962546 2.155628,-2.187863 2.037992,-2.403635 -0.0714,-0.130946 -0.129316,-0.574415 -0.128716,-0.985484 0.0013,-0.880414 0.272943,-1.4994 0.899432,-2.049467 l 0.410502,-0.360423 -0.788421,-2.956497 c -0.848976,-3.183591 -0.783016,-3.055404 -1.643981,-3.195015 -0.832941,-0.135069 -1.684622,-0.97817 -1.943533,-1.923947 -0.06387,-0.233343 -0.205535,-0.45083 -0.31479,-0.483306 -0.924897,-0.274913 -5.89036,-1.564595 -6.023924,-1.564595 -0.09422,0 -0.291607,0.128056 -0.43864,0.284569 -0.545467,0.580619 -1.800469,0.789406 -2.819833,0.469115 -0.18579,-0.05838 -0.645166,0.343971 -2.391463,2.094592 -2.08984,2.095012 -2.157506,2.177361 -2.04097,2.483878 0.188577,0.495981 0.140207,1.569957 -0.09391,2.085298 -0.115165,0.253508 -0.405539,0.633137 -0.645267,0.84362 l -0.435872,0.382697 0.481834,1.839994 c 0.448853,1.714079 0.469579,1.858691 0.302832,2.113171 -0.37022,0.565031 -1.060983,0.626625 -1.384117,0.123416 -0.08638,-0.134526 -0.344003,-0.94312 -0.572493,-1.796875 -0.228491,-0.853756 -0.439512,-1.632127 -0.46894,-1.729708 -0.02938,-0.09759 -0.289357,-0.240506 -0.577614,-0.317603 -0.697146,-0.186458 -1.586067,-1.0627 -1.786987,-1.761495 -0.07956,-0.276702 -0.157323,-0.520778 -0.172802,-0.542395 -0.01549,-0.02163 -1.416148,-0.4144 -3.112583,-0.87284 l -3.08442,-0.833536 -0.344951,0.286953 c -0.782504,0.650936 -1.840112,0.879614 -2.693007,0.582293 l -0.370156,-0.129035 -2.103176,2.083764 c -1.760872,1.744611 -2.157764,2.083763 -2.438532,2.083763 -0.707082,0 -1.117918,-0.63593 -0.79919,-1.237068 0.09192,-0.173372 1.047136,-1.191151 2.1227,-2.261738 1.483972,-1.47711 1.93337,-1.990093 1.863528,-2.127203 -0.361637,-0.709899 -0.17531,-1.957474 0.406102,-2.719173 l 0.393925,-0.51605 -0.830034,-3.104429 C 14.237005,31.640472 14.176966,31.470784 13.899486,31.404325 12.873354,31.158559 12.031116,30.315718 11.785762,29.289084 11.719102,29.010146 11.564021,28.953118 9.0055145,28.266646 6.731163,27.65642 6.259644,27.493576 6.0703909,27.252985 5.7825446,26.887045 5.7857111,26.643712 6.0832149,26.265468 6.2516297,26.051359 6.428685,25.962679 6.6868822,25.963111 c 0.2009455,3.34e-4 1.4778227,0.301958 2.8375028,0.670273 l 2.472158,0.669661 0.587827,-0.53234 c 0.840336,-0.761025 1.703097,-0.975081 2.711867,-0.672847 l 0.451779,0.135354 2.162411,-2.160159 2.162404,-2.160162 -0.165001,-0.533587 c -0.299805,-0.969529 0.02294,-2.053932 0.819402,-2.753245 l 0.407903,-0.358142 -0.688588,-2.573233 c -0.378716,-1.415278 -0.688583,-2.701929 -0.688583,-2.859225 0,-0.360883 0.443013,-0.786016 0.819067,-0.786016 0.654282,0 0.731164,0.17129 1.661566,3.701613 l 0.566445,2.14933 0.459934,0.11637 c 0.855441,0.216437 1.514683,0.854304 1.868225,1.807647 l 0.208183,0.561377 3.081461,0.826015 3.081455,0.826015 0.513076,-0.391641 c 0.804252,-0.613898 1.397983,-0.71733 2.631015,-0.458338 0.325433,0.06836 0.467638,-0.05063 2.513165,-2.102942 1.956642,-1.963125 2.1558,-2.1986 2.040963,-2.413168 -0.188153,-0.351571 -0.154402,-1.539422 0.05821,-2.049843 0.10202,-0.244877 0.394555,-0.638659 0.650079,-0.875069 l 0.464597,-0.429837 -0.707568,-2.627661 c -0.38917,-1.4452131 -0.707575,-2.7158723 -0.707575,-2.8236859 0,-0.2898063 0.522625,-0.7604925 0.844412,-0.7604925 0.616434,0 0.741485,0.2581299 1.504793,3.1062284 l 0.723743,2.700462 0.613217,0.223709 c 0.763289,0.278457 1.394051,0.896025 1.664207,1.629394 0.11378,0.308858 0.237124,0.596486 0.274099,0.639175 0.03697,0.04269 1.455202,0.449688 3.151605,0.904445 l 3.084369,0.826833 0.307661,-0.287654 c 0.690958,-0.646041 1.584348,-0.867754 2.512601,-0.623557 l 0.595172,0.156573 1.991967,-2.002386 c 1.095581,-1.101314 2.117902,-2.052321 2.271815,-2.113351 0.622714,-0.246902 1.303773,0.434158 1.056874,1.056867 -0.06103,0.15392 -1.016273,1.180465 -2.122753,2.28121 -1.904378,1.894504 -2.005613,2.017282 -1.896104,2.299679 0.06362,0.164078 0.11921,0.58291 0.123533,0.930737 0.02673,2.154062 -2.301909,3.475973 -4.131062,2.345095 -0.663622,-0.410286 -1.191114,-1.213419 -1.272768,-1.937856 -0.03242,-0.287223 -0.09094,-0.523262 -0.130145,-0.524529 -0.03919,-0.0013 -1.387345,-0.358383 -2.995863,-0.793591 l -2.924581,-0.791285 -0.476594,0.49038 c -0.763682,0.785768 -1.637939,0.992328 -2.930453,0.692378 -0.252629,-0.05863 -0.54938,0.196023 -2.448962,2.101501 -2.089738,2.096225 -2.1575,2.178735 -2.040964,2.485239 0.344764,0.906799 -0.07227,2.428963 -0.809232,2.953731 -0.184286,0.131225 -0.333031,0.32561 -0.33056,0.431976 0.0025,0.106362 0.354248,1.486684 0.78172,3.067369 l 0.777215,2.873977 0.52301,0.07481 c 0.63161,0.09035 1.084579,0.312845 1.525652,0.74939 0.384713,0.380758 0.750389,1.122346 0.756532,1.534215 0.0025,0.158104 0.04228,0.343727 0.08876,0.412495 0.07927,0.117331 5.605788,1.657216 5.947592,1.657216 0.08684,0 0.266141,-0.152035 0.398454,-0.337852 0.132312,-0.185817 0.523826,-0.476437 0.870036,-0.645819 0.536555,-0.262515 0.735542,-0.29999 1.348285,-0.253931 0.395357,0.0297 0.79644,0.08804 0.891304,0.129614 0.120998,0.05302 0.817923,-0.570576 2.335299,-2.08959 l 2.162835,-2.165166 -0.1368,-0.543267 c -0.257546,-1.022816 0.03305,-1.988255 0.818531,-2.719556 l 0.434171,-0.404213 -0.449019,-1.665497 c -0.246958,-0.916024 -0.44939,-1.772163 -0.449845,-1.90253 -0.0018,-0.630817 0.997254,-0.99569 1.426912,-0.52092 0.109211,0.120679 0.414754,1.006618 0.678981,1.968752 l 0.480412,1.749338 0.616484,0.22876 c 0.78622,0.291749 1.404809,0.910988 1.689452,1.69124 l 0.223714,0.613217 2.700465,0.723743 c 2.848091,0.763312 3.106218,0.888359 3.106218,1.50479 0,0.321788 -0.470679,0.844417 -0.760481,0.844417 -0.107829,0 -1.383097,-0.319652 -2.833953,-0.710334 l -2.637917,-0.710331 -0.362084,0.415593 c -0.542694,0.622885 -1.145027,0.890085 -2.006467,0.890085 -0.400349,0 -0.835127,-0.05738 -0.966169,-0.127507 -0.215269,-0.115211 -0.448336,0.08257 -2.415697,2.049931 l -2.177441,2.177442 0.143159,0.693113 c 0.178148,0.862515 0.01289,1.561544 -0.540499,2.286559 l -0.37512,0.491434 0.826014,3.081457 0.826013,3.081458 0.561378,0.208185 c 0.953338,0.353541 1.591205,1.012782 1.807648,1.868225 l 0.116366,0.459936 2.149327,0.566445 c 3.545405,0.934373 3.701621,1.00517 3.701621,1.677677 0,0.373732 -0.435279,0.803361 -0.812299,0.801768 -0.154034,-8.22e-4 -1.418394,-0.307443 -2.809702,-0.681758 l -2.529648,-0.680569 -0.459933,0.439284 c -0.852806,0.814517 -1.756189,1.071862 -2.718282,0.774357 l -0.533592,-0.165003 -2.160161,2.162409 -2.160153,2.162408 0.135352,0.451776 c 0.302232,1.008776 0.08817,1.871532 -0.67285,2.711872 l -0.53234,0.587826 0.669664,2.472158 c 0.368312,1.359685 0.669937,2.636571 0.670272,2.837503 4.11e-4,0.258203 -0.08825,0.435257 -0.302358,0.603668 -0.378241,0.297533 -0.621579,0.300693 -0.987513,0.01281 z M 43.79847,58.051869 c 0.229395,-0.229392 0.336109,-0.451246 0.336109,-0.698748 0,-0.247501 -0.10671,-0.469356 -0.336109,-0.698747 -0.420393,-0.420396 -0.907377,-0.442332 -1.350878,-0.06085 -0.255807,0.220037 -0.320004,0.372427 -0.320004,0.759601 0,0.948384 1.002159,1.367477 1.670882,0.698748 z M 32.277564,55.15596 c 0.210345,-0.07332 0.440466,-0.272216 0.541885,-0.468329 0.524578,-1.014432 -0.797073,-1.978603 -1.604884,-1.170793 -0.502229,0.502227 -0.333872,1.391579 0.312831,1.652554 0.329125,0.132821 0.330711,0.132793 0.750168,-0.01344 z m 19.569789,-5.152965 c 0.471461,-0.471467 0.464591,-1.030134 -0.0177,-1.435924 -0.423124,-0.356035 -0.888808,-0.38123 -1.285063,-0.06954 -0.764711,0.601521 -0.301106,1.819749 0.699062,1.836958 0.147158,0.0025 0.418805,-0.146642 0.603666,-0.331499 z m -22.368144,-6.25068 c 0.415355,-0.357273 0.425202,-1.02658 0.02105,-1.430732 -0.639643,-0.639647 -1.693402,-0.186837 -1.693402,0.727674 0,0.854583 1.00501,1.277085 1.67236,0.703058 z m -2.675935,-2.572492 c 0.203057,-0.231269 0.576615,-0.514718 0.830122,-0.629885 0.515339,-0.234113 1.589316,-0.282479 2.085295,-0.09391 0.306523,0.116536 0.388866,0.04888 2.483881,-2.040967 1.750621,-1.746303 2.152968,-2.205673 2.094586,-2.391466 -0.320283,-1.019361 -0.111499,-2.274361 0.469122,-2.819826 0.156514,-0.147035 0.284566,-0.344424 0.284566,-0.438641 0,-0.133565 -1.289682,-5.099027 -1.564596,-6.023923 -0.03261,-0.109821 -0.253855,-0.251116 -0.494683,-0.315961 -1.025892,-0.276246 -1.843879,-1.195751 -1.93835,-2.178913 -0.05353,-0.556976 -0.07422,-0.587273 -0.472575,-0.691397 -0.229135,-0.0599 -1.594346,-0.423453 -3.033805,-0.807907 l -2.617192,-0.699011 -0.361505,0.411732 c -0.689978,0.785845 -1.688434,1.089775 -2.703138,0.822835 l -0.595095,-0.156553 -2.153486,2.155727 -2.153486,2.155722 0.1481,0.528979 c 0.276805,0.988641 -0.07733,2.150206 -0.849645,2.786809 l -0.398695,0.32864 0.797749,2.988272 c 0.438759,1.64355 0.797773,2.996657 0.797805,3.006912 3.2e-5,0.01032 0.219959,0.05526 0.488736,0.10001 1.330051,0.221488 2.224016,1.177361 2.407018,2.573707 0.03413,0.260588 0.213474,0.325629 2.910992,1.055814 1.581024,0.42796 2.940851,0.78162 3.021834,0.785903 0.08099,0.0043 0.313388,-0.181434 0.516445,-0.412708 z M 18.305,40.607275 c 0.809449,-0.809444 -0.156684,-2.129297 -1.173677,-1.603387 -0.418963,0.216652 -0.653028,0.813511 -0.488615,1.24595 0.261509,0.687833 1.142467,0.877264 1.662292,0.357437 z m 30.070318,-1.549069 c 0.375202,-0.130795 0.703568,-0.601181 0.703568,-1.007855 0,-0.124774 -0.133949,-0.386058 -0.297674,-0.580631 -0.235595,-0.27999 -0.388209,-0.353775 -0.731719,-0.353775 -1.148843,0 -1.423303,1.52136 -0.350405,1.942342 0.158099,0.06204 0.292667,0.116072 0.299045,0.120081 0.0064,0.004 0.176107,-0.05006 0.377185,-0.120162 z M 37.527246,35.704162 c 0.430846,-0.370596 0.440656,-1.012688 0.02187,-1.431458 -0.647335,-0.647331 -1.693402,-0.197825 -1.693402,0.727675 0,0.853971 1.004984,1.27711 1.671514,0.703783 z M 56.47924,30.978449 c 1.005572,-0.420156 0.707904,-1.917433 -0.379265,-1.907724 -0.451091,0.0041 -0.705059,0.153631 -0.908154,0.534959 -0.338031,0.634673 0.06888,1.342453 0.87604,1.523805 0.01782,0.004 0.202962,-0.06396 0.411379,-0.15104 z M 15.244864,29.348237 c 0.146325,-0.166285 0.258709,-0.444894 0.258709,-0.641378 0,-0.479023 -0.54866,-1.019597 -1.034854,-1.019597 -0.475229,0 -1.034855,0.541009 -1.034855,1.000424 0,0.954658 1.17503,1.383247 1.811,0.660551 z m 19.15789,-4.838715 c 0.443961,-0.443961 0.422351,-1.0709 -0.05062,-1.468888 -0.194575,-0.163726 -0.455856,-0.297684 -0.580628,-0.297684 -0.400641,0 -0.876875,0.327838 -1.003379,0.690712 -0.353155,1.013076 0.883504,1.826998 1.63464,1.07586 z m -11.10902,-3.21016 c 0.34305,-0.389827 0.328727,-0.870227 -0.03893,-1.307204 -0.405792,-0.482256 -0.964464,-0.48913 -1.435925,-0.01767 -0.3628,0.362803 -0.416296,0.711838 -0.175646,1.146027 0.351709,0.634557 1.171358,0.72337 1.650537,0.178844 z m 30.298595,-1.659159 c 0.379606,-0.298598 0.47349,-0.71209 0.271469,-1.195592 -0.295752,-0.707841 -1.280864,-0.803548 -1.726229,-0.167707 -0.660292,0.942702 0.54888,2.07586 1.45476,1.363299 z M 42.216157,16.63002 c 0.381331,-0.203097 0.530931,-0.457065 0.534963,-0.908155 0.0097,-1.085815 -1.4875,-1.385 -1.90697,-0.381071 -0.367407,0.879324 0.54026,1.732219 1.372007,1.289226 z"
       id="path1" /><path
       style="opacity:1;fill:#c52529;fill-opacity:1;fill-rule:evenodd;stroke:none;stroke-width:0.0159161;stroke-miterlimit:2.4;stroke-dasharray:none;stroke-opacity:1"
       d="m 85.136038,74.317373 c -1.048383,0.01649 -1.977134,0.657015 -2.687907,1.379374 -0.638018,0.645061 -1.131844,1.515779 -1.074478,2.448234 0.144721,1.124896 0.73809,2.18884 1.642013,2.879773 0.704778,0.518604 1.603011,0.792237 2.477708,0.671434 0.993353,-0.06649 1.906902,-0.625034 2.525398,-1.389629 0.816575,-0.876225 1.045625,-2.219719 0.587224,-3.323262 -0.40653,-0.99255 -1.146397,-1.877309 -2.101988,-2.379046 -0.422649,-0.209605 -0.897722,-0.300621 -1.36797,-0.286878 z"
       id="path2"
       transform="scale(0.26458333)" /><path
       style="opacity:1;fill:#c52529;fill-opacity:1;fill-rule:evenodd;stroke:none;stroke-width:0.090035;stroke-miterlimit:2.4;stroke-dasharray:none;stroke-opacity:1"
       d="m 66.242658,147.24969 c -2.79277,0.065 -4.511609,4.16555 -2.255158,6.04897 1.891151,2.16346 5.818993,0.65321 6.008017,-2.13698 0.269826,-2.11632 -1.64603,-4.03604 -3.752859,-3.91199 z"
       id="path3"
       transform="scale(0.26458333)" /><path
       style="opacity:1;fill:#c52529;fill-opacity:1;fill-rule:evenodd;stroke:none;stroke-width:0.090035;stroke-miterlimit:2.4;stroke-dasharray:none;stroke-opacity:1"
       d="m 138.75761,128.78038 c -1.80133,0.0134 -3.10868,1.96538 -2.93027,3.67237 -0.15264,2.2559 2.76483,4.0096 4.74482,2.93491 1.67227,-0.76145 3.05889,-2.89867 1.84804,-4.63687 -0.59452,-1.52437 -2.09736,-2.15061 -3.66259,-1.97041 z"
       id="path4"
       transform="scale(0.26458333)" /><path
       style="opacity:1;fill:#c52529;fill-opacity:1;fill-rule:evenodd;stroke:none;stroke-width:0.090035;stroke-miterlimit:2.4;stroke-dasharray:none;stroke-opacity:1"
       d="m 120.59863,201.36605 c -2.88729,-0.0191 -4.68665,3.98815 -2.53758,6.0257 1.36408,1.85927 4.21601,1.38075 5.39852,-0.40153 1.33612,-1.50944 0.8232,-3.93162 -0.85656,-4.95651 -0.57487,-0.43359 -1.27755,-0.70216 -2.00438,-0.66766 z"
       id="path5"
       transform="scale(0.26458333)" /><path
       style="opacity:1;fill:#c52529;fill-opacity:1;fill-rule:evenodd;stroke:none;stroke-width:0.090035;stroke-miterlimit:2.4;stroke-dasharray:none;stroke-opacity:1"
       d="m 193.12381,182.72924 c -2.71466,0.12592 -4.22793,3.69768 -2.48733,5.76328 0.9746,1.21958 3.0098,2.21126 4.33491,0.9217 1.48953,-0.8833 2.58739,-2.9183 1.68707,-4.55731 -0.8336,-1.11306 -2.04938,-2.2027 -3.53465,-2.12767 z"
       id="path6"
       transform="scale(0.26458333)" /><path
       style="opacity:1;fill:#c52529;fill-opacity:1;fill-rule:evenodd;stroke:none;stroke-width:0.090035;stroke-miterlimit:2.4;stroke-dasharray:none;stroke-opacity:1"
       d="m 157.69591,55.969056 c -2.59322,-0.08898 -4.10216,2.997054 -2.98516,5.15704 1.00704,2.122556 4.15002,2.616514 5.66325,0.76909 1.65006,-1.716373 1.08654,-5.173068 -1.43163,-5.75305 -0.40205,-0.125828 -0.8253,-0.185189 -1.24646,-0.17308 z"
       id="path7"
       transform="scale(0.26458333)" /><path
       style="opacity:1;fill:#b5d19d;fill-opacity:1;fill-rule:evenodd;stroke:none;stroke-width:0.090035;stroke-miterlimit:2.4;stroke-dasharray:none;stroke-opacity:1"
       d="m 211.83553,110.1217 c -2.85316,-0.126 -4.51282,3.8767 -2.43754,5.84285 0.98059,1.04779 2.6338,1.99211 3.95432,0.89378 2.25933,-0.78603 2.78465,-3.97233 1.24599,-5.64418 -0.72217,-0.72783 -1.73479,-1.1429 -2.76277,-1.09245 z"
       id="path8"
       transform="scale(0.26458333)" /><path
       style="opacity:1;fill:#b5d19d;fill-opacity:1;fill-rule:evenodd;stroke:none;stroke-width:0.0636644;stroke-miterlimit:2.4;stroke-dasharray:none;stroke-opacity:1"
       d="m 54.491078,104.88749 c -1.388391,0.14906 -2.544243,1.25512 -3.233032,2.40824 -0.984684,2.22555 1.087289,5.10269 3.540923,4.68878 2.408364,0.17544 4.427735,-2.79589 3.159385,-4.90921 -0.68144,-1.24341 -1.994626,-2.25889 -3.467276,-2.18781 z"
       id="path9"
       transform="scale(0.26458333)" /><path
       style="opacity:1;fill:#b5d19d;fill-opacity:1;fill-rule:evenodd;stroke:none;stroke-width:0.0636644;stroke-miterlimit:2.4;stroke-dasharray:none;stroke-opacity:1"
       d="m 127.15945,86.243352 c -2.23939,0.253482 -4.05146,2.80963 -3.09124,4.973414 0.80758,2.276475 4.11422,3.11363 5.78998,1.284725 1.3853,-1.268946 1.59627,-3.641074 0.1418,-4.948411 -0.74558,-0.74502 -1.74187,-1.396379 -2.84054,-1.309728 z"
       id="path10"
       transform="scale(0.26458333)" /><path
       style="opacity:1;fill:#b5d19d;fill-opacity:1;fill-rule:evenodd;stroke:none;stroke-width:0.0636644;stroke-miterlimit:2.4;stroke-dasharray:none;stroke-opacity:1"
       d="m 108.73771,159.04792 c -2.61255,0.004 -4.37785,3.31369 -2.91719,5.48336 1.40268,2.43322 5.6514,1.94251 6.40158,-0.78564 0.72827,-2.2968 -1.04701,-4.77453 -3.48439,-4.69772 z"
       id="path11"
       transform="scale(0.26458333)" /><path
       style="opacity:1;fill:#b5d19d;fill-opacity:1;fill-rule:evenodd;stroke:none;stroke-width:0.090035;stroke-miterlimit:2.4;stroke-dasharray:none;stroke-opacity:1"
       d="m 181.41113,140.6131 c -2.85173,-0.21431 -4.65628,3.84779 -2.45476,5.76096 1.02191,0.93559 2.56731,1.94915 3.89477,0.94031 1.92706,-0.72599 3.24798,-3.57524 1.56423,-5.19287 -0.7751,-0.80794 -1.43653,-2.06607 -2.7536,-1.52656 l -0.2376,0.0172 z"
       id="path12"
       transform="scale(0.26458333)" /><path
       style="opacity:1;fill:#b5d19d;fill-opacity:1;fill-rule:evenodd;stroke:none;stroke-width:0.090035;stroke-miterlimit:2.4;stroke-dasharray:none;stroke-opacity:1"
       d="m 199.99025,67.707325 c -2.55237,0.01705 -4.32885,3.172168 -2.86699,5.325002 1.2027,2.218587 4.73963,2.37115 6.0136,0.134463 1.48139,-2.289097 -0.35522,-5.638536 -3.14661,-5.459465 z"
       id="path13"
       transform="scale(0.26458333)" /><path
       style="opacity:1;fill:#b5d19d;fill-opacity:1;fill-rule:evenodd;stroke:none;stroke-width:0.090035;stroke-miterlimit:2.4;stroke-dasharray:none;stroke-opacity:1"
       d="m 162.63428,213.13037 c -2.85344,0.22248 -4.18813,4.03028 -2.33752,6.11875 1.59553,1.9079 5.07732,1.06712 5.9038,-1.21574 1.18501,-2.29244 -1.28868,-4.94203 -3.56628,-4.90301 z"
       id="path14"
       transform="scale(0.26458333)" /></g></svg>
