<?xml version="1.0" encoding="UTF-8" standalone="no"?>
<svg
   version="1.1"
   width="526.8"
   height="576.24"
   viewBox="0 0 526.8 576.24"
   id="svg24"
   sodipodi:docname="CSIC_logo.svg"
   inkscape:version="1.4.2 (1:1.4.2+202505120738+ebf0e940d0)"
   inkscape:export-filename="CSIC_logo.png"
   inkscape:export-xdpi="96"
   inkscape:export-ydpi="96"
   xml:space="preserve"
   xmlns:inkscape="http://www.inkscape.org/namespaces/inkscape"
   xmlns:sodipodi="http://sodipodi.sourceforge.net/DTD/sodipodi-0.dtd"
   xmlns="http://www.w3.org/2000/svg"
   xmlns:svg="http://www.w3.org/2000/svg"><defs
     id="defs24"><clipPath
       id="clip_3"><path
         transform="matrix(0.977274,0,0,-0.977274,733.591,161.14914)"
         d="M 0,0 H 594 V 183 H 0 Z"
         clip-rule="evenodd"
         id="path4-3" /></clipPath><clipPath
       id="clip_1"><path
         transform="matrix(1.05975,0,0,-1.05975,0,168.21094)"
         d="M 0,0 H 646.499 V 158.727 H 0 Z"
         clip-rule="evenodd"
         id="path2" /></clipPath></defs><sodipodi:namedview
     id="namedview24"
     pagecolor="#ffffff"
     bordercolor="#000000"
     borderopacity="0.25"
     inkscape:showpageshadow="2"
     inkscape:pageopacity="0.0"
     inkscape:pagecheckerboard="0"
     inkscape:deskcolor="#d1d1d1"
     inkscape:zoom="1.0221782"
     inkscape:cx="236.26017"
     inkscape:cy="320.39423"
     inkscape:window-width="1858"
     inkscape:window-height="1016"
     inkscape:window-x="0"
     inkscape:window-y="0"
     inkscape:window-maximized="1"
     inkscape:current-layer="svg24" /><circle
     style="fill:#ffffff;fill-rule:evenodd;stroke:none;stroke-width:0.437969;stroke-miterlimit:2.4"
     id="path25"
     cx="263.39999"
     cy="288.12"
     r="258.4725" /><g
     id="g54"
     transform="matrix(0.93046281,0,0,0.93046281,-782.4439,232.94075)"><path
       style="fill:#961925;fill-opacity:1;stroke-width:0.445697"
       d="m 938.40453,117.40329 c -25.70638,-3.43302 -43.71734,-14.79295 -52.59105,-33.170383 -3.77677,-7.821696 -5.17921,-14.443282 -5.19385,-24.522754 -0.0145,-9.988154 1.63394,-17.647917 5.43909,-25.273499 8.45054,-16.935001 24.95474,-28.1179446 48.03331,-32.5464726 4.62253,-0.8870141 6.57317,-0.99695883 17.46058,-0.98412763 9.63647,0.011368 13.20948,0.18142193 16.71366,0.79552593 10.59452,1.8566867 22.74362,5.1651517 29.62532,8.0676477 2.0762,0.8756646 4.18211,1.5939346 4.67981,1.5961406 0.4978,0.0026 1.4262,-0.63002 2.0631,-1.4049596 l 1.1582,-1.408978 1.6227,1.5163836 1.6229,1.516385 -8.4108,13.058093 c -4.62591,7.181952 -8.51741,13.164753 -8.64771,13.295114 -0.1304,0.130361 -0.7314,-0.08686 -1.3355,-0.4827 -0.7558,-0.495228 -1.1914,-1.301062 -1.3965,-2.583442 -0.1639,-1.025042 -0.79624,-2.516978 -1.40524,-3.315409 -2.58782,-3.39281 -12.7557,-7.747995 -23.87753,-10.227407 -4.89833,-1.09199 -6.38704,-1.226272 -13.52665,-1.220074 -6.55016,0.0053 -8.75876,0.178231 -12.03384,0.940125 -17.36183,4.038936 -28.8318,14.216381 -32.29267,28.653684 -1.11708,4.660007 -1.22263,12.717826 -0.23218,17.72443 0.88211,4.458953 4.30954,11.450787 7.50385,15.307615 8.99537,10.861062 25.6003,16.750152 42.77462,15.170402 12.6841,-1.16672 25.02081,-5.1713 33.35434,-10.827041 3.9702,-2.694532 5.3124,-5.285182 4.2588,-8.220339 -0.2721,-0.757911 -0.047,-1.053747 1.2887,-1.690466 0.8901,-0.424483 1.676,-0.713048 1.7463,-0.641265 0.07,0.07183 3.36121,5.325404 7.31311,11.674699 l 7.1853,11.544172 -0.9502,1.01152 c -0.7457,0.79361 -1.2717,0.9594 -2.4419,0.7695 -1.2279,-0.19927 -2.697,0.35101 -8.31221,3.11352 -13.12203,6.45558 -21.44185,9.53129 -31.77982,11.74848 -4.7141,1.01103 -6.59047,1.16399 -15.82226,1.2898 -5.76064,0.0785 -11.87785,-0.0447 -13.59378,-0.27392 z m 135.04637,-0.0137 c -9.3047,-0.97832 -18.3328,-3.41743 -26.8642,-7.25779 -5.0849,-2.28899 -7.5897,-2.67498 -9.011,-1.38866 -0.8673,0.78484 -0.9471,0.78391 -2.4556,-0.0285 -0.8576,-0.46182 -1.5591,-1.00049 -1.5591,-1.19707 0,-0.34496 10.1568,-22.922547 11.4219,-25.389817 0.5506,-1.073695 0.7457,-1.157496 1.692,-0.726393 0.7423,0.338228 1.2223,1.093836 1.5687,2.469652 0.7286,2.893503 3.5446,5.408485 9.0623,8.093416 8.1374,3.959702 19.4384,6.933132 28.4016,7.472852 8.606,0.51819 19.297,-0.92608 26.2963,-3.55236 7.3234,-2.748 11.0685,-6.179288 11.486,-10.523731 0.4668,-4.858353 -1.2695,-7.747459 -5.9148,-9.842389 -5.0194,-2.263526 -11.2481,-3.208407 -26.2963,-3.989018 -21.4593,-1.113195 -32.2175,-2.981488 -40.3355,-7.00474 -7.9791,-3.954388 -13.6881,-11.034744 -15.3747,-19.067876 -0.8417,-4.009019 -0.8423,-11.694718 0,-15.261794 2.7849,-11.81124 11.9432,-20.5780706 27.0534,-25.8966826 7.1409,-2.5135834 12.3659,-3.286855 23.7555,-3.51570823 16.6883,-0.3353204 27.3205,1.62192933 46.234,8.51105523 6.058,2.2066086 9.3276,2.6125496 11.4735,1.4245646 0.9785,-0.541656 1.2476,-0.508793 2.3683,0.289146 0.846,0.602441 1.1728,1.141583 0.9878,1.629734 -0.152,0.401202 -3.4953,6.59595 -7.4297,13.766112 -4.9062,8.941449 -7.3834,13.034515 -7.8859,13.029838 -1.2215,-0.01134 -1.7316,-0.576638 -2.245,-2.487254 -1.4038,-5.224398 -7.6285,-9.715263 -18.4765,-13.33006 -17.7904,-5.92817 -39.6092,-4.586606 -48.2091,2.964239 -2.2355,1.962802 -2.9644,3.603341 -2.9499,6.63917 0.04,8.486161 8.1603,11.929487 31.4809,13.350043 30.1182,1.834639 40.5194,4.616849 49.0685,13.125341 5.7775,5.750115 8.2036,11.969611 8.2036,21.03037 0,9.228828 -2.7509,15.92164 -9.0827,22.09822 -6.2766,6.12268 -15.9753,10.84806 -26.7784,13.04684 -8.9906,1.82988 -29.326,2.60837 -39.6846,1.51922 z m 220.3974,-0.16098 c -24.5733,-3.55369 -41.1766,-13.8053 -50.9547,-31.461786 -2.0218,-3.650824 -4.4461,-11.039931 -5.2557,-16.019098 -0.8358,-5.140333 -0.7394,-16.09226 0.1867,-21.212382 4.69,-25.928971 26.7102,-43.6840516 58.8675,-47.4655686 5.9588,-0.70072663 22.8098,-0.29440653 28.1322,0.6783334 11.2769,2.0610086 21.8231,4.9076276 28.9326,7.8094466 2.4306,0.9920826 4.7694,1.8037796 5.1974,1.8037796 0.4279,0 1.3071,-0.628789 1.9538,-1.3973106 l 1.1757,-1.397312 1.6126,1.305185 c 0.887,0.7178566 1.6014,1.4612696 1.5876,1.6520286 -0.019,0.265532 -16.2764,25.825715 -16.8573,26.503455 -0.069,0.08088 -0.6394,-0.189343 -1.2668,-0.60048 -0.7351,-0.481663 -1.2437,-1.326514 -1.43,-2.375522 -0.6148,-3.461278 -2.7926,-5.529966 -8.931,-8.483339 -5.4046,-2.600251 -15.5064,-5.357607 -23.1555,-6.320414 -10.2284,-1.287444 -22.5072,0.699975 -31.1603,5.043582 -9.7529,4.89555 -17.2425,13.881968 -19.9114,23.890456 -1.3173,4.939587 -1.3014,14.485868 0.032,19.451812 2.4611,9.164315 7.8927,16.566389 16.0095,21.817136 10.417,6.738678 25.5316,9.289408 39.9714,6.745528 12.6855,-2.23485 24.2043,-6.910396 29.3696,-11.921353 l 2.6277,-2.549269 -0.2474,-2.398037 c -0.2443,-2.366615 -0.2276,-2.408762 1.2747,-3.217778 0.8372,-0.450866 1.5859,-0.737383 1.6638,-0.636711 1.0555,1.364387 14.1154,22.850658 14.1154,23.222678 0,1.20389 -1.4005,2.07595 -2.9342,1.82706 -1.2778,-0.20737 -2.9271,0.43174 -10.3243,4.00082 -12.9986,6.27168 -19.4104,8.57357 -30.8655,11.08113 -5.5209,1.20853 -22.8343,1.57575 -29.4161,0.62393 z m -116.7727,-2.0197 v -2.22849 h 1.4998 c 0.8424,0 2.0145,-0.40487 2.6742,-0.92375 l 1.1743,-0.92373 V 59.704553 8.2761924 l -0.9426,-0.878249 c -0.5185,-0.483035 -1.7219,-1.009886 -2.6742,-1.17078 -1.7058,-0.288179 -1.7315,-0.321833 -1.7315,-2.258997 V 2.0016996 h 18.2736 18.2736 v 1.9664668 c 0,1.946642 -0.018,1.969491 -1.7815,2.267454 -0.9799,0.165536 -2.2334,0.666831 -2.7856,1.113978 l -1.0041,0.812999 -0.1182,50.7375376 c -0.084,36.155435 0.023,51.078805 0.3725,51.924965 0.4942,1.19605 1.9222,2.00197 3.9798,2.24599 0.9907,0.11751 1.1292,0.36678 1.25,2.24922 l 0.1359,2.11706 h -18.2981 -18.2979 z"
       id="path1" /></g></svg>
