<?xml version="1.0" encoding="UTF-8" standalone="no"?>
<svg
   version="1.1"
   width="526.8"
   height="576.24"
   viewBox="0 0 526.8 576.24"
   id="svg24"
   sodipodi:docname="ICMM_logo.svg"
   inkscape:version="1.4.2 (1:1.4.2+202505120738+ebf0e940d0)"
   inkscape:export-filename="ICMM_logo.png"
   inkscape:export-xdpi="96"
   inkscape:export-ydpi="96"
   xmlns:inkscape="http://www.inkscape.org/namespaces/inkscape"
   xmlns:sodipodi="http://sodipodi.sourceforge.net/DTD/sodipodi-0.dtd"
   xmlns="http://www.w3.org/2000/svg"
   xmlns:svg="http://www.w3.org/2000/svg">
  <defs
     id="defs24">
    <clipPath
       id="clip_3">
      <path
         transform="matrix(0.977274,0,0,-0.977274,733.591,161.14914)"
         d="M 0,0 H 594 V 183 H 0 Z"
         clip-rule="evenodd"
         id="path4-3" />
    </clipPath>
  </defs>
  <sodipodi:namedview
     id="namedview24"
     pagecolor="#ffffff"
     bordercolor="#000000"
     borderopacity="0.25"
     inkscape:showpageshadow="2"
     inkscape:pageopacity="0.0"
     inkscape:pagecheckerboard="0"
     inkscape:deskcolor="#d1d1d1"
     inkscape:zoom="0.5110891"
     inkscape:cx="230.87951"
     inkscape:cy="409.90896"
     inkscape:window-width="1858"
     inkscape:window-height="1016"
     inkscape:window-x="0"
     inkscape:window-y="0"
     inkscape:window-maximized="1"
     inkscape:current-layer="svg24" />
  <circle
     style="fill:#ffffff;fill-rule:evenodd;stroke:none;stroke-width:0.437969;stroke-miterlimit:2.4"
     id="path25"
     cx="263.39999"
     cy="288.12"
     r="258.4725" />
  <g
     id="g59"
     transform="matrix(0.86073859,0,0,0.86073859,-619.15194,229.74516)">
    <g
       clip-path="url(#clip_3)"
       id="g58">
      <path
         transform="matrix(0.977274,0,0,-0.977274,733.591,161.14914)"
         d="m 26,166 c 0.0159,-15.741 0,-15.592 0,-15.592 0,0 24.7395,-10.031 32,-12.408 v 28 z"
         fill="#bbda3c"
         id="path55" />
      <path
         transform="matrix(0.977274,0,0,-0.977274,733.591,161.14914)"
         d="m 193,77 c -10.257,2.373 -20.004,6.7475 -30,10 -2.105,-6.457 -4.648,-11.878 -9.289,-16.96 C 150.461,66.481 146.37,63.669 142,61.644 112.53,47.991 82.8843,86.4527 102.044,112 c 3.089,4.119 6.532,7.348 10.956,9.985 4.987,2.971 10.182,4.514 16,4.806 9.7,0.486 18.599,-4.05 25,-8.791 5.298,8.585 11.451,18.173 17,27 -13.931,8.417 -27.412,14.192 -44,13.996 -13.303,-0.157 -26.2,-5.05 -36.9853,-12.657 C 80.4856,139.619 72.3734,128.915 68.3202,118 54.8168,81.635 72.7744,40.506 111,29.209 143.753,19.53 189.279,39.873 193,77 m 1,-52 h 31 v 52 c 0,8.7597 -1.094,18.3616 0.465,27 1.97,10.926 10.765,21.32 22.535,21.736 11.857,0.419 21.452,-9.707 23.532,-20.736 C 273.154,96.402 272,86.7299 272,78 V 25 h 31 v 52 c 0,9.0453 -1.228,19.1238 0.669,28 2.371,11.095 12.209,21.558 24.331,20.787 C 339.042,125.085 347.57,115.404 349.532,105 351.154,96.402 350,86.7299 350,78 V 25 h 31 v 61 c 0,13.9505 0.99,28.091 -5.373,41 -14.905,30.237 -64.655,43.948 -87.627,14 -27.341,26.149 -74.963,19.698 -89.907,-17 C 193.041,111.594 194,98.0904 194,85 Z"
         fill="#4b4b4b"
         id="path56" />
      <path
         transform="matrix(0.977274,0,0,-0.977274,733.591,161.14914)"
         d="m 384,25 h 32 v 54 c 0,8.9833 -1.328,19.178 0.479,28 2.065,10.079 12.068,18.82 22.521,18.819 11.631,0 20.575,-10.021 22.535,-20.819 C 463.159,96.0566 462,86.0717 462,77 V 25 h 32 v 54 c 0,8.9833 -1.328,19.178 0.479,28 2.065,10.079 12.068,18.82 22.521,18.819 10.918,0 20.541,-9.46 22.532,-19.819 C 541.24,97.1117 540,87.0311 540,78 V 25 h 31 v 61 c 0,14.097 1.097,27.95 -5.259,41 -15.078,30.956 -64.159,43.15 -87.741,14 -27.095,26.518 -74.797,19.384 -89.547,-17 C 383.138,110.889 384,96.8674 384,83 Z"
         fill="#aa2a30"
         id="path57" />
      <path
         transform="matrix(0.977274,0,0,-0.977274,733.591,161.14914)"
         d="M 26,139 V 25 h 32 v 93 c -0.0012,2.665 -0.2278,7.582 -0.2278,7.582 C 48.1643,130.467 35.6344,135.57 26,139 Z"
         fill="#4b4b4b"
         id="path58" />
    </g>
  </g>
</svg>
